  0
SECTION
  2
HEADER
  9
$ACADVER
  1
AC1024
  9
$ACADMAINTVER
 70
     6
  9
$DWGCODEPAGE
  3
UNDEFINED
  9
$INSBASE
 10
0.0
 20
0.0
 30
0.0
  9
$EXTMIN
 10
1.000000000000000E+20
 20
1.000000000000000E+20
 30
1.000000000000000E+20
  9
$EXTMAX
 10
-1.000000000000000E+20
 20
-1.000000000000000E+20
 30
-1.000000000000000E+20
  9
$LIMMIN
 10
0.0
 20
0.0
  9
$LIMMAX
 10
12.0
 20
9.0
  9
$ORTHOMODE
 70
     0
  9
$REGENMODE
 70
     1
  9
$FILLMODE
 70
     1
  9
$QTEXTMODE
 70
     0
  9
$MIRRTEXT
 70
     1
  9
$LTSCALE
 40
1.0
  9
$ATTMODE
 70
     1
  9
$TEXTSIZE
 40
0.2
  9
$TRACEWID
 40
0.05
  9
$TEXTSTYLE
  7
Standard
  9
$CLAYER
  8
0
  9
$CELTYPE
  6
ByLayer
  9
$CECOLOR
 62
   256
  9
$CELTSCALE
 40
1.0
  9
$DISPSILH
 70
     0
  9
$DIMSCALE
 40
1.0
  9
$DIMASZ
 40
0.18
  9
$DIMEXO
 40
0.0625
  9
$DIMDLI
 40
0.38
  9
$DIMRND
 40
0.0
  9
$DIMDLE
 40
0.0
  9
$DIMEXE
 40
0.18
  9
$DIMTP
 40
0.0
  9
$DIMTM
 40
0.0
  9
$DIMTXT
 40
0.18
  9
$DIMCEN
 40
0.09
  9
$DIMTSZ
 40
0.0
  9
$DIMTOL
 70
     0
  9
$DIMLIM
 70
     0
  9
$DIMTIH
 70
     1
  9
$DIMTOH
 70
     1
  9
$DIMSE1
 70
     0
  9
$DIMSE2
 70
     0
  9
$DIMTAD
 70
     0
  9
$DIMZIN
 70
     0
  9
$DIMBLK
  1

  9
$DIMASO
 70
     1
  9
$DIMSHO
 70
     1
  9
$DIMPOST
  1

  9
$DIMAPOST
  1

  9
$DIMALT
 70
     0
  9
$DIMALTD
 70
     2
  9
$DIMALTF
 40
25.4
  9
$DIMLFAC
 40
1.0
  9
$DIMTOFL
 70
     0
  9
$DIMTVP
 40
0.0
  9
$DIMTIX
 70
     0
  9
$DIMSOXD
 70
     0
  9
$DIMSAH
 70
     0
  9
$DIMBLK1
  1

  9
$DIMBLK2
  1

  9
$DIMSTYLE
  2
Standard
  9
$DIMCLRD
 70
     0
  9
$DIMCLRE
 70
     0
  9
$DIMCLRT
 70
     0
  9
$DIMTFAC
 40
1.0
  9
$DIMGAP
 40
0.09
  9
$DIMJUST
 70
     0
  9
$DIMSD1
 70
     0
  9
$DIMSD2
 70
     0
  9
$DIMTOLJ
 70
     1
  9
$DIMTZIN
 70
     0
  9
$DIMALTZ
 70
     0
  9
$DIMALTTZ
 70
     0
  9
$DIMUPT
 70
     0
  9
$DIMDEC
 70
     4
  9
$DIMTDEC
 70
     4
  9
$DIMALTU
 70
     2
  9
$DIMALTTD
 70
     2
  9
$DIMTXSTY
  7
Standard
  9
$DIMAUNIT
 70
     0
  9
$DIMADEC
 70
     0
  9
$DIMALTRND
 40
0.0
  9
$DIMAZIN
 70
     0
  9
$DIMDSEP
 70
    46
  9
$DIMATFIT
 70
     3
  9
$DIMFRAC
 70
     0
  9
$DIMLDRBLK
  1

  9
$DIMLUNIT
 70
     2
  9
$DIMLWD
 70
    -2
  9
$DIMLWE
 70
    -2
  9
$DIMTMOVE
 70
     0
  9
$DIMFXL
 40
1.0
  9
$DIMFXLON
 70
     0
  9
$DIMJOGANG
 40
0.7853981633974483
  9
$DIMTFILL
 70
     0
  9
$DIMTFILLCLR
 70
     0
  9
$DIMARCSYM
 70
     0
  9
$DIMLTYPE
  6

  9
$DIMLTEX1
  6

  9
$DIMLTEX2
  6

  9
$DIMTXTDIRECTION
 70
     0
  9
$LUNITS
 70
     2
  9
$LUPREC
 70
     4
  9
$SKETCHINC
 40
0.1
  9
$FILLETRAD
 40
0.5
  9
$AUNITS
 70
     0
  9
$AUPREC
 70
     0
  9
$MENU
  1
.
  9
$ELEVATION
 40
0.0
  9
$PELEVATION
 40
0.0
  9
$THICKNESS
 40
0.0
  9
$LIMCHECK
 70
     0
  9
$CHAMFERA
 40
0.5
  9
$CHAMFERB
 40
0.5
  9
$CHAMFERC
 40
1.0
  9
$CHAMFERD
 40
0.0
  9
$SKPOLY
 70
     0
  9
$TDCREATE
 40
2458659.927835648
  9
$TDUCREATE
 40
2458659.594502315
  9
$TDUPDATE
 40
2458659.927835648
  9
$TDUUPDATE
 40
2458659.594502315
  9
$TDINDWG
 40
0.0000000116
  9
$TDUSRTIMER
 40
0.0000000116
  9
$USRTIMER
 70
     1
  9
$ANGBASE
 50
0.0
  9
$ANGDIR
 70
     0
  9
$PDMODE
 70
     0
  9
$PDSIZE
 40
0.0
  9
$PLINEWID
 40
0.0
  9
$SPLFRAME
 70
     0
  9
$SPLINETYPE
 70
     6
  9
$SPLINESEGS
 70
     8
  9
$HANDSEED
  5
1CE
  9
$SURFTAB1
 70
     6
  9
$SURFTAB2
 70
     6
  9
$SURFTYPE
 70
     6
  9
$SURFU
 70
     6
  9
$SURFV
 70
     6
  9
$UCSBASE
  2

  9
$UCSNAME
  2

  9
$UCSORG
 10
0.0
 20
0.0
 30
0.0
  9
$UCSXDIR
 10
1.0
 20
0.0
 30
0.0
  9
$UCSYDIR
 10
0.0
 20
1.0
 30
0.0
  9
$UCSORTHOREF
  2

  9
$UCSORTHOVIEW
 70
     0
  9
$UCSORGTOP
 10
0.0
 20
0.0
 30
0.0
  9
$UCSORGBOTTOM
 10
0.0
 20
0.0
 30
0.0
  9
$UCSORGLEFT
 10
0.0
 20
0.0
 30
0.0
  9
$UCSORGRIGHT
 10
0.0
 20
0.0
 30
0.0
  9
$UCSORGFRONT
 10
0.0
 20
0.0
 30
0.0
  9
$UCSORGBACK
 10
0.0
 20
0.0
 30
0.0
  9
$PUCSBASE
  2

  9
$PUCSNAME
  2

  9
$PUCSORG
 10
0.0
 20
0.0
 30
0.0
  9
$PUCSXDIR
 10
1.0
 20
0.0
 30
0.0
  9
$PUCSYDIR
 10
0.0
 20
1.0
 30
0.0
  9
$PUCSORTHOREF
  2

  9
$PUCSORTHOVIEW
 70
     0
  9
$PUCSORGTOP
 10
0.0
 20
0.0
 30
0.0
  9
$PUCSORGBOTTOM
 10
0.0
 20
0.0
 30
0.0
  9
$PUCSORGLEFT
 10
0.0
 20
0.0
 30
0.0
  9
$PUCSORGRIGHT
 10
0.0
 20
0.0
 30
0.0
  9
$PUCSORGFRONT
 10
0.0
 20
0.0
 30
0.0
  9
$PUCSORGBACK
 10
0.0
 20
0.0
 30
0.0
  9
$USERI1
 70
     0
  9
$USERI2
 70
     0
  9
$USERI3
 70
     0
  9
$USERI4
 70
     0
  9
$USERI5
 70
     0
  9
$USERR1
 40
0.0
  9
$USERR2
 40
0.0
  9
$USERR3
 40
0.0
  9
$USERR4
 40
0.0
  9
$USERR5
 40
0.0
  9
$WORLDVIEW
 70
     1
  9
$SHADEDGE
 70
     3
  9
$SHADEDIF
 70
    70
  9
$TILEMODE
 70
     1
  9
$MAXACTVP
 70
    64
  9
$PINSBASE
 10
0.0
 20
0.0
 30
0.0
  9
$PLIMCHECK
 70
     0
  9
$PEXTMIN
 10
1.000000000000000E+20
 20
1.000000000000000E+20
 30
1.000000000000000E+20
  9
$PEXTMAX
 10
-1.000000000000000E+20
 20
-1.000000000000000E+20
 30
-1.000000000000000E+20
  9
$PLIMMIN
 10
0.0
 20
0.0
  9
$PLIMMAX
 10
12.0
 20
9.0
  9
$UNITMODE
 70
     0
  9
$VISRETAIN
 70
     1
  9
$PLINEGEN
 70
     0
  9
$PSLTSCALE
 70
     1
  9
$TREEDEPTH
 70
  3020
  9
$CMLSTYLE
  2
Standard
  9
$CMLJUST
 70
     0
  9
$CMLSCALE
 40
1.0
  9
$PROXYGRAPHICS
 70
     1
  9
$MEASUREMENT
 70
     0
  9
$CELWEIGHT
370
    -1
  9
$ENDCAPS
280
     0
  9
$JOINSTYLE
280
     0
  9
$LWDISPLAY
290
     1
  9
$INSUNITS
 70
     1
  9
$HYPERLINKBASE
  1

  9
$STYLESHEET
  1

  9
$XEDIT
290
     1
  9
$CEPSNTYPE
380
     0
  9
$PSTYLEMODE
290
     1
  9
$FINGERPRINTGUID
  2
{E32D77F6-AF5A-DF23-9FA7-3FD0A360D790}
  9
$VERSIONGUID
  2
{FAEB1C32-E019-11D5-929B-00C0DF256EC4}
  9
$EXTNAMES
290
     1
  9
$PSVPSCALE
 40
0.0
  9
$OLESTARTUP
290
     0
  9
$SORTENTS
280
   127
  9
$INDEXCTL
280
     0
  9
$HIDETEXT
280
     1
  9
$XCLIPFRAME
280
     2
  9
$HALOGAP
280
     0
  9
$OBSCOLOR
 70
   257
  9
$OBSLTYPE
280
     0
  9
$INTERSECTIONDISPLAY
280
     0
  9
$INTERSECTIONCOLOR
 70
   257
  9
$DIMASSOC
280
     2
  9
$PROJECTNAME
  1

  9
$CAMERADISPLAY
290
     0
  9
$LENSLENGTH
 40
50.0
  9
$CAMERAHEIGHT
 40
0.0
  9
$STEPSPERSEC
 40
2.0
  9
$STEPSIZE
 40
6.0
  9
$3DDWFPREC
 40
2.0
  9
$PSOLWIDTH
 40
0.25
  9
$PSOLHEIGHT
 40
4.0
  9
$LOFTANG1
 40
1.570796326794897
  9
$LOFTANG2
 40
1.570796326794897
  9
$LOFTMAG1
 40
0.0
  9
$LOFTMAG2
 40
0.0
  9
$LOFTPARAM
 70
     7
  9
$LOFTNORMALS
280
     1
  9
$LATITUDE
 40
37.795
  9
$LONGITUDE
 40
-122.394
  9
$NORTHDIRECTION
 40
0.0
  9
$TIMEZONE
 70
 -8000
  9
$LIGHTGLYPHDISPLAY
280
     1
  9
$TILEMODELIGHTSYNCH
280
     1
  9
$CMATERIAL
347
3C
  9
$SOLIDHIST
280
     1
  9
$SHOWHIST
280
     1
  9
$DWFFRAME
280
     2
  9
$DGNFRAME
280
     2
  9
$REALWORLDSCALE
290
     1
  9
$INTERFERECOLOR
 62
   256
  9
$CSHADOW
280
     0
  9
$SHADOWPLANELOCATION
 40
0.0
  0
ENDSEC
  0
SECTION
  2
CLASSES
  0
CLASS
  1
ACDBDICTIONARYWDFLT
  2
AcDbDictionaryWithDefault
  3
ObjectDBX Classes
 90
        0
 91
        4
280
     0
281
     0
  0
CLASS
  1
VISUALSTYLE
  2
AcDbVisualStyle
  3
ObjectDBX Classes
 90
     4095
 91
        4
280
     0
281
     0
  0
CLASS
  1
MATERIAL
  2
AcDbMaterial
  3
ObjectDBX Classes
 90
     1153
 91
        4
280
     0
281
     0
  0
CLASS
  1
SUN
  2
AcDbSun
  3
SCENEOE
 90
     1024
 91
        4
280
     0
281
     0
  0
ENDSEC
  0
SECTION
  2
TABLES
  0
TABLE
  2
VPORT
  5
8
330
0
100
AcDbSymbolTable
 70
     1
  0
VPORT
  5
29
330
8
100
AcDbSymbolTableRecord
100
AcDbViewportTableRecord
  2
*Active
 70
     0
 10
0.0
 20
0.0
 11
1.0
 21
1.0
 12
0.0
 22
0.0
 13
0.0
 23
0.0
 14
0.5
 24
0.5
 15
0.5
 25
0.5
 16
0.0
 26
0.0
 36
1.0
 17
121.4449148143721
 27
-50.18031284544117
 37
0.0
 40
100.3606256908823
 41
1.764740483988781
 42
50.0
 43
0.0
 44
0.0
 50
0.0
 51
0.0
 71
     0
 72
   100
 73
     1
 74
     3
 75
     0
 76
     0
 77
     0
 78
     0
281
     0
 65
     1
110
0.0
120
0.0
130
0.0
111
1.0
121
0.0
131
0.0
112
0.0
122
1.0
132
0.0
 79
     0
146
0.0
 60
     3
 61
     5
292
     1
282
     1
141
0.0
142
0.0
 63
   250
361
3F
  0
ENDTAB
  0
TABLE
  2
LTYPE
  5
5
330
0
100
AcDbSymbolTable
 70
     1
  0
LTYPE
  5
14
330
5
100
AcDbSymbolTableRecord
100
AcDbLinetypeTableRecord
  2
ByBlock
 70
     0
  3

 72
    65
 73
     0
 40
0.0
  0
LTYPE
  5
15
330
5
100
AcDbSymbolTableRecord
100
AcDbLinetypeTableRecord
  2
ByLayer
 70
     0
  3

 72
    65
 73
     0
 40
0.0
  0
LTYPE
  5
16
330
5
100
AcDbSymbolTableRecord
100
AcDbLinetypeTableRecord
  2
Continuous
 70
     0
  3
Solid line
 72
    65
 73
     0
 40
0.0
  0
ENDTAB
  0
TABLE
  2
LAYER
  5
2
330
0
100
AcDbSymbolTable
 70
     2
  0
LAYER
  5
10
330
2
100
AcDbSymbolTableRecord
100
AcDbLayerTableRecord
  2
0
 70
     0
 62
     7
  6
Continuous
370
    -3
390
F
347
3E
  0
LAYER
  5
40
330
2
100
AcDbSymbolTableRecord
100
AcDbLayerTableRecord
  2
_U+56FE_U+5C42 1
 70
     0
 62
     7
  6
Continuous
370
    -3
390
F
347
3E
  0
ENDTAB
  0
TABLE
  2
STYLE
  5
3
330
0
100
AcDbSymbolTable
 70
     1
  0
STYLE
  5
11
330
3
100
AcDbSymbolTableRecord
100
AcDbTextStyleTableRecord
  2
Standard
 70
     0
 40
0.0
 41
1.0
 50
0.0
 71
     0
 42
0.2
  3
txt
  4

  0
ENDTAB
  0
TABLE
  2
VIEW
  5
6
330
0
100
AcDbSymbolTable
 70
     0
  0
ENDTAB
  0
TABLE
  2
UCS
  5
7
330
0
100
AcDbSymbolTable
 70
     0
  0
ENDTAB
  0
TABLE
  2
APPID
  5
9
330
0
100
AcDbSymbolTable
 70
     1
  0
APPID
  5
12
330
9
100
AcDbSymbolTableRecord
100
AcDbRegAppTableRecord
  2
ACAD
 70
     0
  0
ENDTAB
  0
TABLE
  2
DIMSTYLE
  5
A
330
0
100
AcDbSymbolTable
 70
     1
100
AcDbDimStyleTable
  0
DIMSTYLE
105
27
330
A
100
AcDbSymbolTableRecord
100
AcDbDimStyleTableRecord
  2
Standard
 70
     0
178
     0
340
11
  0
ENDTAB
  0
TABLE
  2
BLOCK_RECORD
  5
1
330
0
100
AcDbSymbolTable
 70
    13
  0
BLOCK_RECORD
  5
1F
330
1
100
AcDbSymbolTableRecord
100
AcDbBlockTableRecord
  2
*Model_Space
340
22
 70
     0
280
     1
281
     0
  0
BLOCK_RECORD
  5
1B
330
1
100
AcDbSymbolTableRecord
100
AcDbBlockTableRecord
  2
*Paper_Space
340
1E
 70
     0
280
     1
281
     0
  0
BLOCK_RECORD
  5
23
330
1
100
AcDbSymbolTableRecord
100
AcDbBlockTableRecord
  2
*Paper_Space0
340
26
 70
     0
280
     1
281
     0
  0
BLOCK_RECORD
  5
41
330
1
100
AcDbSymbolTableRecord
100
AcDbBlockTableRecord
  2
block 2
340
0
102
{BLKREFS
331
42
102
}
 70
     0
280
     1
281
     0
  0
BLOCK_RECORD
  5
64
330
1
100
AcDbSymbolTableRecord
100
AcDbBlockTableRecord
  2
block 3
340
0
102
{BLKREFS
331
65
102
}
 70
     0
280
     1
281
     0
  0
BLOCK_RECORD
  5
69
330
1
100
AcDbSymbolTableRecord
100
AcDbBlockTableRecord
  2
block 4
340
0
102
{BLKREFS
331
6A
102
}
 70
     0
280
     1
281
     0
  0
BLOCK_RECORD
  5
87
330
1
100
AcDbSymbolTableRecord
100
AcDbBlockTableRecord
  2
block 5
340
0
102
{BLKREFS
331
88
102
}
 70
     0
280
     1
281
     0
  0
BLOCK_RECORD
  5
E2
330
1
100
AcDbSymbolTableRecord
100
AcDbBlockTableRecord
  2
block 6
340
0
102
{BLKREFS
331
E3
102
}
 70
     0
280
     1
281
     0
  0
BLOCK_RECORD
  5
10C
330
1
100
AcDbSymbolTableRecord
100
AcDbBlockTableRecord
  2
block 7
340
0
102
{BLKREFS
331
10D
102
}
 70
     0
280
     1
281
     0
  0
BLOCK_RECORD
  5
12E
330
1
100
AcDbSymbolTableRecord
100
AcDbBlockTableRecord
  2
block 8
340
0
102
{BLKREFS
331
12F
102
}
 70
     0
280
     1
281
     0
  0
BLOCK_RECORD
  5
132
330
1
100
AcDbSymbolTableRecord
100
AcDbBlockTableRecord
  2
block 9
340
0
102
{BLKREFS
331
133
102
}
 70
     0
280
     1
281
     0
  0
BLOCK_RECORD
  5
138
330
1
100
AcDbSymbolTableRecord
100
AcDbBlockTableRecord
  2
block 10
340
0
102
{BLKREFS
331
139
102
}
 70
     0
280
     1
281
     0
  0
BLOCK_RECORD
  5
195
330
1
100
AcDbSymbolTableRecord
100
AcDbBlockTableRecord
  2
block 11
340
0
102
{BLKREFS
331
196
102
}
 70
     0
280
     1
281
     0
  0
BLOCK_RECORD
  5
1C2
330
1
100
AcDbSymbolTableRecord
100
AcDbBlockTableRecord
  2
block 12
340
0
102
{BLKREFS
331
1C3
102
}
 70
     0
280
     1
281
     0
  0
BLOCK_RECORD
  5
1C6
330
1
100
AcDbSymbolTableRecord
100
AcDbBlockTableRecord
  2
block 13
340
0
102
{BLKREFS
331
1C7
102
}
 70
     0
280
     1
281
     0
  0
ENDTAB
  0
ENDSEC
  0
SECTION
  2
BLOCKS
  0
BLOCK
  5
20
330
1F
100
AcDbEntity
  8
0
100
AcDbBlockBegin
  2
*Model_Space
 70
     0
 10
0.0
 20
0.0
 30
0.0
  3
*Model_Space
  1

  0
ENDBLK
  5
21
330
1F
100
AcDbEntity
  8
0
100
AcDbBlockEnd
  0
BLOCK
  5
1C
330
1B
100
AcDbEntity
 67
     1
  8
0
100
AcDbBlockBegin
  2
*Paper_Space
 70
     0
 10
0.0
 20
0.0
 30
0.0
  3
*Paper_Space
  1

  0
ENDBLK
  5
1D
330
1B
100
AcDbEntity
 67
     1
  8
0
100
AcDbBlockEnd
  0
BLOCK
  5
24
330
23
100
AcDbEntity
  8
0
100
AcDbBlockBegin
  2
*Paper_Space0
 70
     0
 10
0.0
 20
0.0
 30
0.0
  3
*Paper_Space0
  1

  0
ENDBLK
  5
25
330
23
100
AcDbEntity
  8
0
100
AcDbBlockEnd
  0
BLOCK
  5
43
330
41
100
AcDbEntity
  8
0
100
AcDbBlockBegin
  2
block 2
 70
     0
 10
0.0
 20
0.0
 30
0.0
  3
block 2
  1

  0
POLYLINE
  5
45
330
41
100
AcDbEntity
  8
_U+56FE_U+5C42 1
 62
   179
420
  2234388
370
    35
100
AcDb2dPolyline
 66
     1
 10
0.0
 20
0.0
 30
0.0
  0
VERTEX
  5
46
330
45
100
AcDbEntity
  8
_U+56FE_U+5C42 1
 62
   179
420
  2234388
370
    35
100
AcDbVertex
100
AcDb2dVertex
 10
173.4557526895473
 20
-88.32399673897075
 30
0.0
  0
VERTEX
  5
47
330
45
100
AcDbEntity
  8
_U+56FE_U+5C42 1
 62
   179
420
  2234388
370
    35
100
AcDbVertex
100
AcDb2dVertex
 10
173.4557526895473
 20
-65.8239967445954
 30
0.0
  0
VERTEX
  5
48
330
45
100
AcDbEntity
  8
_U+56FE_U+5C42 1
 62
   179
420
  2234388
370
    35
100
AcDbVertex
100
AcDb2dVertex
 10
185.9557526864217
 20
-65.8239967445954
 30
0.0
  0
VERTEX
  5
49
330
45
100
AcDbEntity
  8
_U+56FE_U+5C42 1
 62
   179
420
  2234388
370
    35
100
AcDbVertex
100
AcDb2dVertex
 10
185.9557526864217
 20
-88.32399673897075
 30
0.0
  0
VERTEX
  5
4A
330
45
100
AcDbEntity
  8
_U+56FE_U+5C42 1
 62
   179
420
  2234388
370
    35
100
AcDbVertex
100
AcDb2dVertex
 10
173.4557526895473
 20
-88.32399673897075
 30
0.0
  0
SEQEND
  5
4B
330
45
100
AcDbEntity
  8
_U+56FE_U+5C42 1
 62
   179
420
  2234388
370
    35
  0
POLYLINE
  5
4C
330
41
100
AcDbEntity
  8
_U+56FE_U+5C42 1
 62
   179
420
  2234388
370
    35
100
AcDb2dPolyline
 66
     1
 10
0.0
 20
0.0
 30
0.0
  0
VERTEX
  5
4D
330
4C
100
AcDbEntity
  8
_U+56FE_U+5C42 1
 62
   179
420
  2234388
370
    35
100
AcDbVertex
100
AcDb2dVertex
 10
198.0765609424159
 20
-78.97399674130797
 30
0.0
  0
VERTEX
  5
4E
330
4C
100
AcDbEntity
  8
_U+56FE_U+5C42 1
 62
   179
420
  2234388
370
    35
100
AcDbVertex
100
AcDb2dVertex
 10
198.0765609424159
 20
-75.1739967422582
 30
0.0
  0
VERTEX
  5
4F
330
4C
100
AcDbEntity
  8
_U+56FE_U+5C42 1
 62
   179
420
  2234388
370
    35
100
AcDbVertex
100
AcDb2dVertex
 10
199.8765609419661
 20
-75.1739967422582
 30
0.0
  0
VERTEX
  5
50
330
4C
100
AcDbEntity
  8
_U+56FE_U+5C42 1
 62
   179
420
  2234388
370
    35
100
AcDbVertex
100
AcDb2dVertex
 10
199.8765609419661
 20
-78.97399674130797
 30
0.0
  0
VERTEX
  5
51
330
4C
100
AcDbEntity
  8
_U+56FE_U+5C42 1
 62
   179
420
  2234388
370
    35
100
AcDbVertex
100
AcDb2dVertex
 10
198.0765609424159
 20
-78.97399674130797
 30
0.0
  0
SEQEND
  5
52
330
4C
100
AcDbEntity
  8
_U+56FE_U+5C42 1
 62
   179
420
  2234388
370
    35
  0
POLYLINE
  5
53
330
41
100
AcDbEntity
  8
_U+56FE_U+5C42 1
 62
   179
420
  2234388
370
    35
100
AcDb2dPolyline
 66
     1
 10
0.0
 20
0.0
 30
0.0
  0
VERTEX
  5
54
330
53
100
AcDbEntity
  8
_U+56FE_U+5C42 1
 62
   179
420
  2234388
370
    35
100
AcDbVertex
100
AcDb2dVertex
 10
198.0765609424159
 20
-88.23923610542327
 30
0.0
  0
VERTEX
  5
55
330
53
100
AcDbEntity
  8
_U+56FE_U+5C42 1
 62
   179
420
  2234388
370
    35
100
AcDbVertex
100
AcDb2dVertex
 10
198.0765609424159
 20
-84.43923610637253
 30
0.0
  0
VERTEX
  5
56
330
53
100
AcDbEntity
  8
_U+56FE_U+5C42 1
 62
   179
420
  2234388
370
    35
100
AcDbVertex
100
AcDb2dVertex
 10
199.8765609419661
 20
-84.43923610637253
 30
0.0
  0
VERTEX
  5
57
330
53
100
AcDbEntity
  8
_U+56FE_U+5C42 1
 62
   179
420
  2234388
370
    35
100
AcDbVertex
100
AcDb2dVertex
 10
199.8765609419661
 20
-88.23923610542327
 30
0.0
  0
VERTEX
  5
58
330
53
100
AcDbEntity
  8
_U+56FE_U+5C42 1
 62
   179
420
  2234388
370
    35
100
AcDbVertex
100
AcDb2dVertex
 10
198.0765609424159
 20
-88.23923610542327
 30
0.0
  0
SEQEND
  5
59
330
53
100
AcDbEntity
  8
_U+56FE_U+5C42 1
 62
   179
420
  2234388
370
    35
  0
POLYLINE
  5
5A
330
41
100
AcDbEntity
  8
_U+56FE_U+5C42 1
 62
   179
420
  2234388
370
    35
100
AcDb2dPolyline
 66
     1
 10
0.0
 20
0.0
 30
0.0
  0
VERTEX
  5
5B
330
5A
100
AcDbEntity
  8
_U+56FE_U+5C42 1
 62
   179
420
  2234388
370
    35
100
AcDbVertex
100
AcDb2dVertex
 10
198.0765609424159
 20
-69.70875737719395
 30
0.0
  0
VERTEX
  5
5C
330
5A
100
AcDbEntity
  8
_U+56FE_U+5C42 1
 62
   179
420
  2234388
370
    35
100
AcDbVertex
100
AcDb2dVertex
 10
198.0765609424159
 20
-65.90875737814353
 30
0.0
  0
VERTEX
  5
5D
330
5A
100
AcDbEntity
  8
_U+56FE_U+5C42 1
 62
   179
420
  2234388
370
    35
100
AcDbVertex
100
AcDb2dVertex
 10
199.8765609419661
 20
-65.90875737814353
 30
0.0
  0
VERTEX
  5
5E
330
5A
100
AcDbEntity
  8
_U+56FE_U+5C42 1
 62
   179
420
  2234388
370
    35
100
AcDbVertex
100
AcDb2dVertex
 10
199.8765609419661
 20
-69.70875737719395
 30
0.0
  0
VERTEX
  5
5F
330
5A
100
AcDbEntity
  8
_U+56FE_U+5C42 1
 62
   179
420
  2234388
370
    35
100
AcDbVertex
100
AcDb2dVertex
 10
198.0765609424159
 20
-69.70875737719395
 30
0.0
  0
SEQEND
  5
60
330
5A
100
AcDbEntity
  8
_U+56FE_U+5C42 1
 62
   179
420
  2234388
370
    35
  0
SPLINE
  5
61
330
41
100
AcDbEntity
  8
_U+56FE_U+5C42 1
 62
   179
420
  2234388
370
    35
100
AcDbSpline
210
0.0
220
0.0
230
1.0
 70
    11
 71
     3
 72
    17
 73
    13
 74
     0
 42
0.0000000001
 43
0.0000000001
 12
1.0
 22
0.0
 32
0.0
 13
1.0
 23
0.0
 33
0.0
 40
0.0
 40
0.0
 40
0.0
 40
0.0
 40
1.0
 40
1.0
 40
1.0
 40
2.0
 40
2.0
 40
2.0
 40
3.0
 40
3.0
 40
3.0
 40
4.0
 40
4.0
 40
4.0
 40
4.0
 10
179.7057526879851
 20
-91.0739967382831
 30
0.0
 10
179.4296103131534
 20
-91.0739967382831
 30
0.0
 10
179.2057526881092
 20
-90.85013911323931
 30
0.0
 10
179.2057526881092
 20
-90.5739967384079
 30
0.0
 10
179.2057526881092
 20
-90.29785436357744
 30
0.0
 10
179.4296103131534
 20
-90.07399673853334
 30
0.0
 10
179.7057526879851
 20
-90.07399673853334
 30
0.0
 10
179.9818950628156
 20
-90.07399673853334
 30
0.0
 10
180.2057526878597
 20
-90.29785436357744
 30
0.0
 10
180.2057526878597
 20
-90.5739967384079
 30
0.0
 10
180.2057526878597
 20
-90.85013911323931
 30
0.0
 10
179.9818950628156
 20
-91.0739967382831
 30
0.0
 10
179.7057526879851
 20
-91.0739967382831
 30
0.0
  0
SPLINE
  5
62
330
41
100
AcDbEntity
  8
_U+56FE_U+5C42 1
 62
   179
420
  2234388
370
    35
100
AcDbSpline
210
0.0
220
0.0
230
1.0
 70
    11
 71
     3
 72
    17
 73
    13
 74
     0
 42
0.0000000001
 43
0.0000000001
 12
1.0
 22
0.0
 32
0.0
 13
1.0
 23
0.0
 33
0.0
 40
0.0
 40
0.0
 40
0.0
 40
0.0
 40
1.0
 40
1.0
 40
1.0
 40
2.0
 40
2.0
 40
2.0
 40
3.0
 40
3.0
 40
3.0
 40
4.0
 40
4.0
 40
4.0
 40
4.0
 10
179.7057526879851
 20
-64.07399674503283
 30
0.0
 10
179.4296103131534
 20
-64.07399674503283
 30
0.0
 10
179.2057526881092
 20
-63.85013911998871
 30
0.0
 10
179.2057526881092
 20
-63.57399674515762
 30
0.0
 10
179.2057526881092
 20
-63.29785437032653
 30
0.0
 10
179.4296103131534
 20
-63.07399674528241
 30
0.0
 10
179.7057526879851
 20
-63.07399674528241
 30
0.0
 10
179.9818950628156
 20
-63.07399674528241
 30
0.0
 10
180.2057526878597
 20
-63.29785437032653
 30
0.0
 10
180.2057526878597
 20
-63.57399674515762
 30
0.0
 10
180.2057526878597
 20
-63.85013911998871
 30
0.0
 10
179.9818950628156
 20
-64.07399674503283
 30
0.0
 10
179.7057526879851
 20
-64.07399674503283
 30
0.0
  0
SPLINE
  5
63
330
41
100
AcDbEntity
  8
_U+56FE_U+5C42 1
 62
   179
420
  2234388
370
    35
100
AcDbSpline
210
0.0
220
0.0
230
1.0
 70
    11
 71
     3
 72
    65
 73
    61
 74
     0
 42
0.0000000001
 43
0.0000000001
 12
1.0
 22
0.0
 32
0.0
 13
1.0
 23
0.0
 33
0.0
 40
0.0
 40
0.0
 40
0.0
 40
0.0
 40
1.0
 40
1.0
 40
1.0
 40
2.0
 40
2.0
 40
2.0
 40
3.0
 40
3.0
 40
3.0
 40
4.0
 40
4.0
 40
4.0
 40
5.0
 40
5.0
 40
5.0
 40
6.0
 40
6.0
 40
6.0
 40
7.0
 40
7.0
 40
7.0
 40
8.0
 40
8.0
 40
8.0
 40
9.0
 40
9.0
 40
9.0
 40
10.0
 40
10.0
 40
10.0
 40
11.0
 40
11.0
 40
11.0
 40
12.0
 40
12.0
 40
12.0
 40
13.0
 40
13.0
 40
13.0
 40
14.0
 40
14.0
 40
14.0
 40
15.0
 40
15.0
 40
15.0
 40
16.0
 40
16.0
 40
16.0
 40
17.0
 40
17.0
 40
17.0
 40
18.0
 40
18.0
 40
18.0
 40
19.0
 40
19.0
 40
19.0
 40
20.0
 40
20.0
 40
20.0
 40
20.0
 10
202.8014243750727
 20
-85.92429632046243
 30
0.0
 10
202.8014243750727
 20
-85.92429632046243
 30
0.0
 10
202.8014243750727
 20
-68.22371869495083
 30
0.0
 10
202.8014243750727
 20
-68.22371869495083
 30
0.0
 10
202.8014243750727
 20
-63.99889044215472
 30
0.0
 10
199.3765257621051
 20
-60.57399182918716
 30
0.0
 10
195.1516975093093
 20
-60.57399182918716
 30
0.0
 10
195.1516975093093
 20
-60.57399182918716
 30
0.0
 10
164.50576409111
 20
-60.57398624893445
 30
0.0
 10
164.50576409111
 20
-60.57398624893445
 30
0.0
 10
164.50576409111
 20
-60.57398624893445
 30
0.0
 10
157.7104390593827
 20
-60.5739768780744
 30
0.0
 10
157.7104390593827
 20
-60.5739768780744
 30
0.0
 10
157.7104390593827
 20
-60.5739768780744
 30
0.0
 10
157.7104390593827
 20
-64.67398501507023
 30
0.0
 10
157.7104390593827
 20
-64.67398501507023
 30
0.0
 10
157.7104390593827
 20
-64.67398501507023
 30
0.0
 10
160.2104371937945
 20
-64.67398501507023
 30
0.0
 10
160.2104371937945
 20
-64.67398501507023
 30
0.0
 10
160.2104371937945
 20
-64.67398501507023
 30
0.0
 10
160.2104371937945
 20
-66.47398281057292
 30
0.0
 10
160.2104371937945
 20
-66.47398281057292
 30
0.0
 10
160.2104371937945
 20
-66.47398281057292
 30
0.0
 10
157.7104390593827
 20
-66.47398281057292
 30
0.0
 10
157.7104390593827
 20
-66.47398281057292
 30
0.0
 10
157.7104390593827
 20
-66.47398281057292
 30
0.0
 10
157.7104390593827
 20
-70.57399094756876
 30
0.0
 10
157.7104390593827
 20
-70.57399094756876
 30
0.0
 10
157.7104390593827
 20
-70.57399094756876
 30
0.0
 10
164.50576409111
 20
-70.5740003184288
 30
0.0
 10
164.50576409111
 20
-70.5740003184288
 30
0.0
 10
164.50576409111
 20
-70.5740003184288
 30
0.0
 10
164.50576409111
 20
-83.57400353647873
 30
0.0
 10
164.50576409111
 20
-83.57400353647873
 30
0.0
 10
164.50576409111
 20
-83.57400353647873
 30
0.0
 10
157.7104390593827
 20
-83.57399416561867
 30
0.0
 10
157.7104390593827
 20
-83.57399416561867
 30
0.0
 10
157.7104390593827
 20
-83.57399416561867
 30
0.0
 10
157.7104390593827
 20
-87.67398077076771
 30
0.0
 10
157.7104390593827
 20
-87.67398077076771
 30
0.0
 10
157.7104390593827
 20
-87.67398077076771
 30
0.0
 10
160.2104371937945
 20
-87.67398077076771
 30
0.0
 10
160.2104371937945
 20
-87.67398077076771
 30
0.0
 10
160.2104371937945
 20
-87.67398077076771
 30
0.0
 10
160.2104371937945
 20
-89.4739785662704
 30
0.0
 10
160.2104371937945
 20
-89.4739785662704
 30
0.0
 10
160.2104371937945
 20
-89.4739785662704
 30
0.0
 10
157.7104390593827
 20
-89.4739785662704
 30
0.0
 10
157.7104390593827
 20
-89.4739785662704
 30
0.0
 10
157.7104390593827
 20
-89.4739785662704
 30
0.0
 10
157.7104390593827
 20
-93.57398670326624
 30
0.0
 10
157.7104390593827
 20
-93.57398670326624
 30
0.0
 10
157.7104390593827
 20
-93.57398670326624
 30
0.0
 10
164.50576409111
 20
-93.5739960741263
 30
0.0
 10
164.50576409111
 20
-93.5739960741263
 30
0.0
 10
164.50576409111
 20
-93.5739960741263
 30
0.0
 10
195.1516975093093
 20
-93.574001654379
 30
0.0
 10
195.1516975093093
 20
-93.574001654379
 30
0.0
 10
199.3765257621051
 20
-93.574001654379
 30
0.0
 10
202.8014243750727
 20
-90.14910304141144
 30
0.0
 10
202.8014243750727
 20
-85.92429632046243
 30
0.0
  0
ENDBLK
  5
44
330
41
100
AcDbEntity
  8
0
100
AcDbBlockEnd
  0
BLOCK
  5
66
330
64
100
AcDbEntity
  8
0
100
AcDbBlockBegin
  2
block 3
 70
     0
 10
0.0
 20
0.0
 30
0.0
  3
block 3
  1

  0
SPLINE
  5
68
330
64
100
AcDbEntity
  8
_U+56FE_U+5C42 1
 62
   179
420
  2234388
370
    35
100
AcDbSpline
210
0.0
220
0.0
230
1.0
 70
    11
 71
     3
 72
    44
 73
    40
 74
     0
 42
0.0000000001
 43
0.0000000001
 12
1.0
 22
0.0
 32
0.0
 13
1.0
 23
0.0
 33
0.0
 40
0.0
 40
0.0
 40
0.0
 40
0.0
 40
1.0
 40
1.0
 40
1.0
 40
2.0
 40
2.0
 40
2.0
 40
3.0
 40
3.0
 40
3.0
 40
4.0
 40
4.0
 40
4.0
 40
5.0
 40
5.0
 40
5.0
 40
6.0
 40
6.0
 40
6.0
 40
7.0
 40
7.0
 40
7.0
 40
8.0
 40
8.0
 40
8.0
 40
9.0
 40
9.0
 40
9.0
 40
10.0
 40
10.0
 40
10.0
 40
11.0
 40
11.0
 40
11.0
 40
12.0
 40
12.0
 40
12.0
 40
13.0
 40
13.0
 40
13.0
 40
13.0
 10
196.3818010063056
 20
-43.26253083626641
 30
0.0
 10
196.3818010063056
 20
-43.26253083626641
 30
0.0
 10
196.3818010063056
 20
-45.26253795653496
 30
0.0
 10
196.3818010063056
 20
-45.26253795653496
 30
0.0
 10
196.3818010063056
 20
-45.26253795653496
 30
0.0
 10
186.2817930403519
 20
-45.26253795653496
 30
0.0
 10
186.2817930403519
 20
-45.26253795653496
 30
0.0
 10
186.2817930403519
 20
-45.26253795653496
 30
0.0
 10
186.2817930403519
 20
-47.76253609094653
 30
0.0
 10
186.2817930403519
 20
-47.76253609094653
 30
0.0
 10
186.2817930403519
 20
-47.76253609094653
 30
0.0
 10
184.4817952448492
 20
-47.76253609094653
 30
0.0
 10
184.4817952448492
 20
-47.76253609094653
 30
0.0
 10
184.4817952448492
 20
-47.76253609094653
 30
0.0
 10
184.4817952448492
 20
-45.26253795653496
 30
0.0
 10
184.4817952448492
 20
-45.26253795653496
 30
0.0
 10
184.4817952448492
 20
-45.26253795653496
 30
0.0
 10
184.3818013483898
 20
-45.26253795653496
 30
0.0
 10
184.3818013483898
 20
-45.26253795653496
 30
0.0
 10
184.3818013483898
 20
-45.26253795653496
 30
0.0
 10
182.3817942281216
 20
-45.26253795653496
 30
0.0
 10
182.3817942281216
 20
-45.26253795653496
 30
0.0
 10
182.3817942281216
 20
-45.26253795653496
 30
0.0
 10
182.3817942281216
 20
-48.26252710509051
 30
0.0
 10
182.3817942281216
 20
-48.26252710509051
 30
0.0
 10
182.3817942281216
 20
-49.36708931320164
 30
0.0
 10
183.2772176084316
 20
-50.26253422535842
 30
0.0
 10
184.3818013483898
 20
-50.26253422535842
 30
0.0
 10
184.3818013483898
 20
-50.26253422535842
 30
0.0
 10
196.3818010063056
 20
-50.26253422535842
 30
0.0
 10
196.3818010063056
 20
-50.26253422535842
 30
0.0
 10
198.5909469543753
 20
-50.26253422535842
 30
0.0
 10
200.3817937149953
 20
-48.47166593289164
 30
0.0
 10
200.3817937149953
 20
-46.26254151666875
 30
0.0
 10
200.3817937149953
 20
-46.26254151666875
 30
0.0
 10
200.3817937149953
 20
-43.26253083626641
 30
0.0
 10
200.3817937149953
 20
-43.26253083626641
 30
0.0
 10
200.3817937149953
 20
-43.26253083626641
 30
0.0
 10
196.3818010063056
 20
-43.26253083626641
 30
0.0
 10
196.3818010063056
 20
-43.26253083626641
 30
0.0
  0
ENDBLK
  5
67
330
64
100
AcDbEntity
  8
0
100
AcDbBlockEnd
  0
BLOCK
  5
6B
330
69
100
AcDbEntity
  8
0
100
AcDbBlockBegin
  2
block 4
 70
     0
 10
0.0
 20
0.0
 30
0.0
  3
block 4
  1

  0
SPLINE
  5
6D
330
69
100
AcDbEntity
  8
_U+56FE_U+5C42 1
 62
   179
420
  2234388
370
    35
100
AcDbSpline
210
0.0
220
0.0
230
1.0
 70
    11
 71
     3
 72
    17
 73
    13
 74
     0
 42
0.0000000001
 43
0.0000000001
 12
1.0
 22
0.0
 32
0.0
 13
1.0
 23
0.0
 33
0.0
 40
0.0
 40
0.0
 40
0.0
 40
0.0
 40
1.0
 40
1.0
 40
1.0
 40
2.0
 40
2.0
 40
2.0
 40
3.0
 40
3.0
 40
3.0
 40
4.0
 40
4.0
 40
4.0
 40
4.0
 10
142.7865704176826
 20
-73.34695295449778
 30
0.0
 10
142.7865704176826
 20
-73.62309532932888
 30
0.0
 10
142.5627127926385
 20
-73.84695295437298
 30
0.0
 10
142.2865704178067
 20
-73.84695295437298
 30
0.0
 10
142.0104280429763
 20
-73.84695295437298
 30
0.0
 10
141.7865704179322
 20
-73.62309532932888
 30
0.0
 10
141.7865704179322
 20
-73.34695295449778
 30
0.0
 10
141.7865704179322
 20
-73.07081057966732
 30
0.0
 10
142.0104280429763
 20
-72.84695295462322
 30
0.0
 10
142.2865704178067
 20
-72.84695295462322
 30
0.0
 10
142.5627127926385
 20
-72.84695295462322
 30
0.0
 10
142.7865704176826
 20
-73.07081057966732
 30
0.0
 10
142.7865704176826
 20
-73.34695295449778
 30
0.0
  0
SPLINE
  5
6E
330
69
100
AcDbEntity
  8
_U+56FE_U+5C42 1
 62
   179
420
  2234388
370
    35
100
AcDbSpline
210
0.0
220
0.0
230
1.0
 70
    11
 71
     3
 72
    17
 73
    13
 74
     0
 42
0.0000000001
 43
0.0000000001
 12
1.0
 22
0.0
 32
0.0
 13
1.0
 23
0.0
 33
0.0
 40
0.0
 40
0.0
 40
0.0
 40
0.0
 40
1.0
 40
1.0
 40
1.0
 40
2.0
 40
2.0
 40
2.0
 40
3.0
 40
3.0
 40
3.0
 40
4.0
 40
4.0
 40
4.0
 40
4.0
 10
115.7865704244317
 20
-73.34695295449778
 30
0.0
 10
115.7865704244317
 20
-73.62309532932888
 30
0.0
 10
115.5627127993876
 20
-73.84695295437298
 30
0.0
 10
115.2865704245571
 20
-73.84695295437298
 30
0.0
 10
115.010428049726
 20
-73.84695295437298
 30
0.0
 10
114.7865704246819
 20
-73.62309532932888
 30
0.0
 10
114.7865704246819
 20
-73.34695295449778
 30
0.0
 10
114.7865704246819
 20
-73.07081057966732
 30
0.0
 10
115.010428049726
 20
-72.84695295462322
 30
0.0
 10
115.2865704245571
 20
-72.84695295462322
 30
0.0
 10
115.5627127993876
 20
-72.84695295462322
 30
0.0
 10
115.7865704244317
 20
-73.07081057966732
 30
0.0
 10
115.7865704244317
 20
-73.34695295449778
 30
0.0
  0
POLYLINE
  5
6F
330
69
100
AcDbEntity
  8
_U+56FE_U+5C42 1
 62
   179
420
  2234388
370
    35
100
AcDb2dPolyline
 66
     1
 10
0.0
 20
0.0
 30
0.0
  0
VERTEX
  5
70
330
6F
100
AcDbEntity
  8
_U+56FE_U+5C42 1
 62
   179
420
  2234388
370
    35
100
AcDbVertex
100
AcDb2dVertex
 10
151.7510576457535
 20
-56.66031249797543
 30
0.0
  0
VERTEX
  5
71
330
6F
100
AcDbEntity
  8
_U+56FE_U+5C42 1
 62
   179
420
  2234388
370
    35
100
AcDbVertex
100
AcDb2dVertex
 10
150.4782671187279
 20
-55.38752197094988
 30
0.0
  0
VERTEX
  5
72
330
6F
100
AcDbEntity
  8
_U+56FE_U+5C42 1
 62
   179
420
  2234388
370
    35
100
AcDbVertex
100
AcDb2dVertex
 10
154.0137963604656
 20
-51.85199272921223
 30
0.0
  0
VERTEX
  5
73
330
6F
100
AcDbEntity
  8
_U+56FE_U+5C42 1
 62
   179
420
  2234388
370
    35
100
AcDbVertex
100
AcDb2dVertex
 10
113.5593758491333
 20
-51.68078274155267
 30
0.0
  0
VERTEX
  5
74
330
6F
100
AcDbEntity
  8
_U+56FE_U+5C42 1
 62
   179
420
  2234388
370
    35
100
AcDbVertex
100
AcDb2dVertex
 10
117.094905090871
 20
-55.21631198329032
 30
0.0
  0
VERTEX
  5
75
330
6F
100
AcDbEntity
  8
_U+56FE_U+5C42 1
 62
   179
420
  2234388
370
    35
100
AcDbVertex
100
AcDb2dVertex
 10
115.8221145638454
 20
-56.48910251031587
 30
0.0
  0
VERTEX
  5
76
330
6F
100
AcDbEntity
  8
_U+56FE_U+5C42 1
 62
   179
420
  2234388
370
    35
100
AcDbVertex
100
AcDb2dVertex
 10
112.286563790261
 20
-52.95357326857822
 30
0.0
  0
VERTEX
  5
77
330
6F
100
AcDbEntity
  8
_U+56FE_U+5C42 1
 62
   179
420
  2234388
370
    35
100
AcDbVertex
100
AcDb2dVertex
 10
112.286563790261
 20
-93.57417225453389
 30
0.0
  0
VERTEX
  5
78
330
6F
100
AcDbEntity
  8
_U+56FE_U+5C42 1
 62
   179
420
  2234388
370
    35
100
AcDbVertex
100
AcDb2dVertex
 10
115.8221145638454
 20
-90.03862148094946
 30
0.0
  0
VERTEX
  5
79
330
6F
100
AcDbEntity
  8
_U+56FE_U+5C42 1
 62
   179
420
  2234388
370
    35
100
AcDbVertex
100
AcDb2dVertex
 10
117.094905090871
 20
-91.31141200797502
 30
0.0
  0
VERTEX
  5
7A
330
6F
100
AcDbEntity
  8
_U+56FE_U+5C42 1
 62
   179
420
  2234388
370
    35
100
AcDbVertex
100
AcDb2dVertex
 10
113.5593543172865
 20
-94.84696278155944
 30
0.0
  0
VERTEX
  5
7B
330
6F
100
AcDbEntity
  8
_U+56FE_U+5C42 1
 62
   179
420
  2234388
370
    35
100
AcDbVertex
100
AcDb2dVertex
 10
154.0138178923123
 20
-95.01817276921932
 30
0.0
  0
VERTEX
  5
7C
330
6F
100
AcDbEntity
  8
_U+56FE_U+5C42 1
 62
   179
420
  2234388
370
    35
100
AcDbVertex
100
AcDb2dVertex
 10
150.4782671187279
 20
-91.48262199563457
 30
0.0
  0
VERTEX
  5
7D
330
6F
100
AcDbEntity
  8
_U+56FE_U+5C42 1
 62
   179
420
  2234388
370
    35
100
AcDbVertex
100
AcDb2dVertex
 10
151.7510576457535
 20
-90.20983146860902
 30
0.0
  0
VERTEX
  5
7E
330
6F
100
AcDbEntity
  8
_U+56FE_U+5C42 1
 62
   179
420
  2234388
370
    35
100
AcDbVertex
100
AcDb2dVertex
 10
155.2865868874911
 20
-93.74536071034667
 30
0.0
  0
VERTEX
  5
7F
330
6F
100
AcDbEntity
  8
_U+56FE_U+5C42 1
 62
   179
420
  2234388
370
    35
100
AcDbVertex
100
AcDb2dVertex
 10
155.2865868874911
 20
-53.12478325623778
 30
0.0
  0
VERTEX
  5
80
330
6F
100
AcDbEntity
  8
_U+56FE_U+5C42 1
 62
   179
420
  2234388
370
    35
100
AcDbVertex
100
AcDb2dVertex
 10
151.7510576457535
 20
-56.66031249797543
 30
0.0
  0
SEQEND
  5
81
330
6F
100
AcDbEntity
  8
_U+56FE_U+5C42 1
 62
   179
420
  2234388
370
    35
  0
SPLINE
  5
82
330
69
100
AcDbEntity
  8
_U+56FE_U+5C42 1
 62
   179
420
  2234388
370
    35
100
AcDbSpline
210
0.0
220
0.0
230
1.0
 70
    11
 71
     3
 72
    29
 73
    25
 74
     0
 42
0.0000000001
 43
0.0000000001
 12
1.0
 22
0.0
 32
0.0
 13
1.0
 23
0.0
 33
0.0
 40
0.0
 40
0.0
 40
0.0
 40
0.0
 40
1.0
 40
1.0
 40
1.0
 40
2.0
 40
2.0
 40
2.0
 40
3.0
 40
3.0
 40
3.0
 40
4.0
 40
4.0
 40
4.0
 40
5.0
 40
5.0
 40
5.0
 40
6.0
 40
6.0
 40
6.0
 40
7.0
 40
7.0
 40
7.0
 40
8.0
 40
8.0
 40
8.0
 40
8.0
 10
140.0365642621371
 20
-71.84694958056257
 30
0.0
 10
140.0365642621371
 20
-71.84694958056257
 30
0.0
 10
140.0365642621371
 20
-67.09693805288723
 30
0.0
 10
140.0365642621371
 20
-67.09693805288723
 30
0.0
 10
140.0365642621371
 20
-67.09693805288723
 30
0.0
 10
117.5365810524301
 20
-67.09693805288723
 30
0.0
 10
117.5365810524301
 20
-67.09693805288723
 30
0.0
 10
117.5365810524301
 20
-67.09693805288723
 30
0.0
 10
117.5365810524301
 20
-79.59695025679348
 30
0.0
 10
117.5365810524301
 20
-79.59695025679348
 30
0.0
 10
117.5365810524301
 20
-79.59695025679348
 30
0.0
 10
140.0365642621371
 20
-79.59695025679348
 30
0.0
 10
140.0365642621371
 20
-79.59695025679348
 30
0.0
 10
140.0365642621371
 20
-79.59695025679348
 30
0.0
 10
140.0365642621371
 20
-74.84693872911814
 30
0.0
 10
140.0365642621371
 20
-74.84693872911814
 30
0.0
 10
140.5888561321162
 20
-74.84693872911814
 30
0.0
 10
141.0365678222713
 20
-74.39922703896313
 30
0.0
 10
141.0365678222713
 20
-73.84695670083111
 30
0.0
 10
141.0365678222713
 20
-73.84695670083111
 30
0.0
 10
141.0365678222713
 20
-72.84695314069668
 30
0.0
 10
141.0365678222713
 20
-72.84695314069668
 30
0.0
 10
141.0365678222713
 20
-72.29466127071757
 30
0.0
 10
140.5888561321162
 20
-71.84694958056257
 30
0.0
 10
140.0365642621371
 20
-71.84694958056257
 30
0.0
  0
ENDBLK
  5
6C
330
69
100
AcDbEntity
  8
0
100
AcDbBlockEnd
  0
BLOCK
  5
89
330
87
100
AcDbEntity
  8
0
100
AcDbBlockBegin
  2
block 5
 70
     0
 10
0.0
 20
0.0
 30
0.0
  3
block 5
  1

  0
POLYLINE
  5
8B
330
87
100
AcDbEntity
  8
_U+56FE_U+5C42 1
 62
   179
420
  2234388
370
    35
100
AcDb2dPolyline
 66
     1
 10
0.0
 20
0.0
 30
0.0
  0
VERTEX
  5
8C
330
8B
100
AcDbEntity
  8
_U+56FE_U+5C42 1
 62
   179
420
  2234388
370
    35
100
AcDbVertex
100
AcDb2dVertex
 10
184.1165509617893
 20
-39.22095257121762
 30
0.0
  0
VERTEX
  5
8D
330
8B
100
AcDbEntity
  8
_U+56FE_U+5C42 1
 62
   179
420
  2234388
370
    35
100
AcDbVertex
100
AcDb2dVertex
 10
184.1165509617893
 20
-31.91551993551142
 30
0.0
  0
VERTEX
  5
8E
330
8B
100
AcDbEntity
  8
_U+56FE_U+5C42 1
 62
   179
420
  2234388
370
    35
100
AcDbVertex
100
AcDb2dVertex
 10
183.2165628299613
 20
-31.91551993551142
 30
0.0
  0
VERTEX
  5
8F
330
8B
100
AcDbEntity
  8
_U+56FE_U+5C42 1
 62
   179
420
  2234388
370
    35
100
AcDbVertex
100
AcDb2dVertex
 10
183.2165628299613
 20
-30.11552214000873
 30
0.0
  0
VERTEX
  5
90
330
8B
100
AcDbEntity
  8
_U+56FE_U+5C42 1
 62
   179
420
  2234388
370
    35
100
AcDbVertex
100
AcDb2dVertex
 10
184.1165509617893
 20
-30.11552214000873
 30
0.0
  0
VERTEX
  5
91
330
8B
100
AcDbEntity
  8
_U+56FE_U+5C42 1
 62
   179
420
  2234388
370
    35
100
AcDbVertex
100
AcDb2dVertex
 10
184.1165509617893
 20
-26.76012832845608
 30
0.0
  0
VERTEX
  5
92
330
8B
100
AcDbEntity
  8
_U+56FE_U+5C42 1
 62
   179
420
  2234388
370
    35
100
AcDbVertex
100
AcDb2dVertex
 10
183.2165628299613
 20
-26.76012832845608
 30
0.0
  0
VERTEX
  5
93
330
8B
100
AcDbEntity
  8
_U+56FE_U+5C42 1
 62
   179
420
  2234388
370
    35
100
AcDbVertex
100
AcDb2dVertex
 10
183.2165628299613
 20
-24.96013053295339
 30
0.0
  0
VERTEX
  5
94
330
8B
100
AcDbEntity
  8
_U+56FE_U+5C42 1
 62
   179
420
  2234388
370
    35
100
AcDbVertex
100
AcDb2dVertex
 10
184.1165509617893
 20
-24.96013053295339
 30
0.0
  0
VERTEX
  5
95
330
8B
100
AcDbEntity
  8
_U+56FE_U+5C42 1
 62
   179
420
  2234388
370
    35
100
AcDbVertex
100
AcDb2dVertex
 10
184.1165509617893
 20
-20.51539752896475
 30
0.0
  0
VERTEX
  5
96
330
8B
100
AcDbEntity
  8
_U+56FE_U+5C42 1
 62
   179
420
  2234388
370
    35
100
AcDbVertex
100
AcDb2dVertex
 10
180.1165582530996
 20
-20.51539752896475
 30
0.0
  0
VERTEX
  5
97
330
8B
100
AcDbEntity
  8
_U+56FE_U+5C42 1
 62
   179
420
  2234388
370
    35
100
AcDbVertex
100
AcDb2dVertex
 10
180.1165582530996
 20
-24.96013053295339
 30
0.0
  0
VERTEX
  5
98
330
8B
100
AcDbEntity
  8
_U+56FE_U+5C42 1
 62
   179
420
  2234388
370
    35
100
AcDbVertex
100
AcDb2dVertex
 10
181.0165463849276
 20
-24.96013053295339
 30
0.0
  0
VERTEX
  5
99
330
8B
100
AcDbEntity
  8
_U+56FE_U+5C42 1
 62
   179
420
  2234388
370
    35
100
AcDbVertex
100
AcDb2dVertex
 10
181.0165463849276
 20
-26.76012832845608
 30
0.0
  0
VERTEX
  5
9A
330
8B
100
AcDbEntity
  8
_U+56FE_U+5C42 1
 62
   179
420
  2234388
370
    35
100
AcDbVertex
100
AcDb2dVertex
 10
180.1165582530996
 20
-26.76012832845608
 30
0.0
  0
VERTEX
  5
9B
330
8B
100
AcDbEntity
  8
_U+56FE_U+5C42 1
 62
   179
420
  2234388
370
    35
100
AcDbVertex
100
AcDb2dVertex
 10
180.1165582530996
 20
-30.11552214000873
 30
0.0
  0
VERTEX
  5
9C
330
8B
100
AcDbEntity
  8
_U+56FE_U+5C42 1
 62
   179
420
  2234388
370
    35
100
AcDbVertex
100
AcDb2dVertex
 10
181.0165463849276
 20
-30.11552214000873
 30
0.0
  0
VERTEX
  5
9D
330
8B
100
AcDbEntity
  8
_U+56FE_U+5C42 1
 62
   179
420
  2234388
370
    35
100
AcDbVertex
100
AcDb2dVertex
 10
181.0165463849276
 20
-31.91551993551142
 30
0.0
  0
VERTEX
  5
9E
330
8B
100
AcDbEntity
  8
_U+56FE_U+5C42 1
 62
   179
420
  2234388
370
    35
100
AcDbVertex
100
AcDb2dVertex
 10
180.1165582530996
 20
-31.91551993551142
 30
0.0
  0
VERTEX
  5
9F
330
8B
100
AcDbEntity
  8
_U+56FE_U+5C42 1
 62
   179
420
  2234388
370
    35
100
AcDbVertex
100
AcDb2dVertex
 10
180.1165582530996
 20
-39.22095257121762
 30
0.0
  0
VERTEX
  5
A0
330
8B
100
AcDbEntity
  8
_U+56FE_U+5C42 1
 62
   179
420
  2234388
370
    35
100
AcDbVertex
100
AcDb2dVertex
 10
179.6165457071091
 20
-39.22095257121762
 30
0.0
  0
VERTEX
  5
A1
330
8B
100
AcDbEntity
  8
_U+56FE_U+5C42 1
 62
   179
420
  2234388
370
    35
100
AcDbVertex
100
AcDb2dVertex
 10
179.6165457071091
 20
-41.22095969148584
 30
0.0
  0
VERTEX
  5
A2
330
8B
100
AcDbEntity
  8
_U+56FE_U+5C42 1
 62
   179
420
  2234388
370
    35
100
AcDbVertex
100
AcDb2dVertex
 10
180.1165582530996
 20
-41.22095969148584
 30
0.0
  0
VERTEX
  5
A3
330
8B
100
AcDbEntity
  8
_U+56FE_U+5C42 1
 62
   179
420
  2234388
370
    35
100
AcDbVertex
100
AcDb2dVertex
 10
184.1165509617893
 20
-41.22095969148584
 30
0.0
  0
VERTEX
  5
A4
330
8B
100
AcDbEntity
  8
_U+56FE_U+5C42 1
 62
   179
420
  2234388
370
    35
100
AcDbVertex
100
AcDb2dVertex
 10
184.6165635077797
 20
-41.22095969148584
 30
0.0
  0
VERTEX
  5
A5
330
8B
100
AcDbEntity
  8
_U+56FE_U+5C42 1
 62
   179
420
  2234388
370
    35
100
AcDbVertex
100
AcDb2dVertex
 10
184.6165635077797
 20
-39.22095257121762
 30
0.0
  0
VERTEX
  5
A6
330
8B
100
AcDbEntity
  8
_U+56FE_U+5C42 1
 62
   179
420
  2234388
370
    35
100
AcDbVertex
100
AcDb2dVertex
 10
184.1165509617893
 20
-39.22095257121762
 30
0.0
  0
SEQEND
  5
A7
330
8B
100
AcDbEntity
  8
_U+56FE_U+5C42 1
 62
   179
420
  2234388
370
    35
  0
POLYLINE
  5
A8
330
87
100
AcDbEntity
  8
_U+56FE_U+5C42 1
 62
   179
420
  2234388
370
    35
100
AcDb2dPolyline
 66
     1
 10
0.0
 20
0.0
 30
0.0
  0
VERTEX
  5
A9
330
A8
100
AcDbEntity
  8
_U+56FE_U+5C42 1
 62
   179
420
  2234388
370
    35
100
AcDbVertex
100
AcDb2dVertex
 10
193.3817903259033
 20
-39.22095257121762
 30
0.0
  0
VERTEX
  5
AA
330
A8
100
AcDbEntity
  8
_U+56FE_U+5C42 1
 62
   179
420
  2234388
370
    35
100
AcDbVertex
100
AcDb2dVertex
 10
193.3817903259033
 20
-31.91551993551142
 30
0.0
  0
VERTEX
  5
AB
330
A8
100
AcDbEntity
  8
_U+56FE_U+5C42 1
 62
   179
420
  2234388
370
    35
100
AcDbVertex
100
AcDb2dVertex
 10
192.4818021940753
 20
-31.91551993551142
 30
0.0
  0
VERTEX
  5
AC
330
A8
100
AcDbEntity
  8
_U+56FE_U+5C42 1
 62
   179
420
  2234388
370
    35
100
AcDbVertex
100
AcDb2dVertex
 10
192.4818021940753
 20
-30.11552214000873
 30
0.0
  0
VERTEX
  5
AD
330
A8
100
AcDbEntity
  8
_U+56FE_U+5C42 1
 62
   179
420
  2234388
370
    35
100
AcDbVertex
100
AcDb2dVertex
 10
193.3817903259033
 20
-30.11552214000873
 30
0.0
  0
VERTEX
  5
AE
330
A8
100
AcDbEntity
  8
_U+56FE_U+5C42 1
 62
   179
420
  2234388
370
    35
100
AcDbVertex
100
AcDb2dVertex
 10
193.3817903259033
 20
-26.76012832845608
 30
0.0
  0
VERTEX
  5
AF
330
A8
100
AcDbEntity
  8
_U+56FE_U+5C42 1
 62
   179
420
  2234388
370
    35
100
AcDbVertex
100
AcDb2dVertex
 10
192.4818021940753
 20
-26.76012832845608
 30
0.0
  0
VERTEX
  5
B0
330
A8
100
AcDbEntity
  8
_U+56FE_U+5C42 1
 62
   179
420
  2234388
370
    35
100
AcDbVertex
100
AcDb2dVertex
 10
192.4818021940753
 20
-24.96013053295339
 30
0.0
  0
VERTEX
  5
B1
330
A8
100
AcDbEntity
  8
_U+56FE_U+5C42 1
 62
   179
420
  2234388
370
    35
100
AcDbVertex
100
AcDb2dVertex
 10
193.3817903259033
 20
-24.96013053295339
 30
0.0
  0
VERTEX
  5
B2
330
A8
100
AcDbEntity
  8
_U+56FE_U+5C42 1
 62
   179
420
  2234388
370
    35
100
AcDbVertex
100
AcDb2dVertex
 10
193.3817903259033
 20
-20.51539752896475
 30
0.0
  0
VERTEX
  5
B3
330
A8
100
AcDbEntity
  8
_U+56FE_U+5C42 1
 62
   179
420
  2234388
370
    35
100
AcDbVertex
100
AcDb2dVertex
 10
189.3817976172136
 20
-20.51539752896475
 30
0.0
  0
VERTEX
  5
B4
330
A8
100
AcDbEntity
  8
_U+56FE_U+5C42 1
 62
   179
420
  2234388
370
    35
100
AcDbVertex
100
AcDb2dVertex
 10
189.3817976172136
 20
-24.96013053295339
 30
0.0
  0
VERTEX
  5
B5
330
A8
100
AcDbEntity
  8
_U+56FE_U+5C42 1
 62
   179
420
  2234388
370
    35
100
AcDbVertex
100
AcDb2dVertex
 10
190.2817857490416
 20
-24.96013053295339
 30
0.0
  0
VERTEX
  5
B6
330
A8
100
AcDbEntity
  8
_U+56FE_U+5C42 1
 62
   179
420
  2234388
370
    35
100
AcDbVertex
100
AcDb2dVertex
 10
190.2817857490416
 20
-26.76012832845608
 30
0.0
  0
VERTEX
  5
B7
330
A8
100
AcDbEntity
  8
_U+56FE_U+5C42 1
 62
   179
420
  2234388
370
    35
100
AcDbVertex
100
AcDb2dVertex
 10
189.3817976172136
 20
-26.76012832845608
 30
0.0
  0
VERTEX
  5
B8
330
A8
100
AcDbEntity
  8
_U+56FE_U+5C42 1
 62
   179
420
  2234388
370
    35
100
AcDbVertex
100
AcDb2dVertex
 10
189.3817976172136
 20
-30.11552214000873
 30
0.0
  0
VERTEX
  5
B9
330
A8
100
AcDbEntity
  8
_U+56FE_U+5C42 1
 62
   179
420
  2234388
370
    35
100
AcDbVertex
100
AcDb2dVertex
 10
190.2817857490416
 20
-30.11552214000873
 30
0.0
  0
VERTEX
  5
BA
330
A8
100
AcDbEntity
  8
_U+56FE_U+5C42 1
 62
   179
420
  2234388
370
    35
100
AcDbVertex
100
AcDb2dVertex
 10
190.2817857490416
 20
-31.91551993551142
 30
0.0
  0
VERTEX
  5
BB
330
A8
100
AcDbEntity
  8
_U+56FE_U+5C42 1
 62
   179
420
  2234388
370
    35
100
AcDbVertex
100
AcDb2dVertex
 10
189.3817976172136
 20
-31.91551993551142
 30
0.0
  0
VERTEX
  5
BC
330
A8
100
AcDbEntity
  8
_U+56FE_U+5C42 1
 62
   179
420
  2234388
370
    35
100
AcDbVertex
100
AcDb2dVertex
 10
189.3817976172136
 20
-39.22095257121762
 30
0.0
  0
VERTEX
  5
BD
330
A8
100
AcDbEntity
  8
_U+56FE_U+5C42 1
 62
   179
420
  2234388
370
    35
100
AcDbVertex
100
AcDb2dVertex
 10
188.8817850712232
 20
-39.22095257121762
 30
0.0
  0
VERTEX
  5
BE
330
A8
100
AcDbEntity
  8
_U+56FE_U+5C42 1
 62
   179
420
  2234388
370
    35
100
AcDbVertex
100
AcDb2dVertex
 10
188.8817850712232
 20
-41.22095969148584
 30
0.0
  0
VERTEX
  5
BF
330
A8
100
AcDbEntity
  8
_U+56FE_U+5C42 1
 62
   179
420
  2234388
370
    35
100
AcDbVertex
100
AcDb2dVertex
 10
189.3817976172136
 20
-41.22095969148584
 30
0.0
  0
VERTEX
  5
C0
330
A8
100
AcDbEntity
  8
_U+56FE_U+5C42 1
 62
   179
420
  2234388
370
    35
100
AcDbVertex
100
AcDb2dVertex
 10
193.3817903259033
 20
-41.22095969148584
 30
0.0
  0
VERTEX
  5
C1
330
A8
100
AcDbEntity
  8
_U+56FE_U+5C42 1
 62
   179
420
  2234388
370
    35
100
AcDbVertex
100
AcDb2dVertex
 10
193.8818028718937
 20
-41.22095969148584
 30
0.0
  0
VERTEX
  5
C2
330
A8
100
AcDbEntity
  8
_U+56FE_U+5C42 1
 62
   179
420
  2234388
370
    35
100
AcDbVertex
100
AcDb2dVertex
 10
193.8818028718937
 20
-39.22095257121762
 30
0.0
  0
VERTEX
  5
C3
330
A8
100
AcDbEntity
  8
_U+56FE_U+5C42 1
 62
   179
420
  2234388
370
    35
100
AcDbVertex
100
AcDb2dVertex
 10
193.3817903259033
 20
-39.22095257121762
 30
0.0
  0
SEQEND
  5
C4
330
A8
100
AcDbEntity
  8
_U+56FE_U+5C42 1
 62
   179
420
  2234388
370
    35
  0
POLYLINE
  5
C5
330
87
100
AcDbEntity
  8
_U+56FE_U+5C42 1
 62
   179
420
  2234388
370
    35
100
AcDb2dPolyline
 66
     1
 10
0.0
 20
0.0
 30
0.0
  0
VERTEX
  5
C6
330
C5
100
AcDbEntity
  8
_U+56FE_U+5C42 1
 62
   179
420
  2234388
370
    35
100
AcDbVertex
100
AcDb2dVertex
 10
202.6470296900186
 20
-39.22095257121762
 30
0.0
  0
VERTEX
  5
C7
330
C5
100
AcDbEntity
  8
_U+56FE_U+5C42 1
 62
   179
420
  2234388
370
    35
100
AcDbVertex
100
AcDb2dVertex
 10
202.6470296900186
 20
-31.91551993551142
 30
0.0
  0
VERTEX
  5
C8
330
C5
100
AcDbEntity
  8
_U+56FE_U+5C42 1
 62
   179
420
  2234388
370
    35
100
AcDbVertex
100
AcDb2dVertex
 10
201.7470415581906
 20
-31.91551993551142
 30
0.0
  0
VERTEX
  5
C9
330
C5
100
AcDbEntity
  8
_U+56FE_U+5C42 1
 62
   179
420
  2234388
370
    35
100
AcDbVertex
100
AcDb2dVertex
 10
201.7470415581906
 20
-30.11552214000873
 30
0.0
  0
VERTEX
  5
CA
330
C5
100
AcDbEntity
  8
_U+56FE_U+5C42 1
 62
   179
420
  2234388
370
    35
100
AcDbVertex
100
AcDb2dVertex
 10
202.6470296900186
 20
-30.11552214000873
 30
0.0
  0
VERTEX
  5
CB
330
C5
100
AcDbEntity
  8
_U+56FE_U+5C42 1
 62
   179
420
  2234388
370
    35
100
AcDbVertex
100
AcDb2dVertex
 10
202.6470296900186
 20
-26.76012832845608
 30
0.0
  0
VERTEX
  5
CC
330
C5
100
AcDbEntity
  8
_U+56FE_U+5C42 1
 62
   179
420
  2234388
370
    35
100
AcDbVertex
100
AcDb2dVertex
 10
201.7470415581906
 20
-26.76012832845608
 30
0.0
  0
VERTEX
  5
CD
330
C5
100
AcDbEntity
  8
_U+56FE_U+5C42 1
 62
   179
420
  2234388
370
    35
100
AcDbVertex
100
AcDb2dVertex
 10
201.7470415581906
 20
-24.96013053295339
 30
0.0
  0
VERTEX
  5
CE
330
C5
100
AcDbEntity
  8
_U+56FE_U+5C42 1
 62
   179
420
  2234388
370
    35
100
AcDbVertex
100
AcDb2dVertex
 10
202.6470296900186
 20
-24.96013053295339
 30
0.0
  0
VERTEX
  5
CF
330
C5
100
AcDbEntity
  8
_U+56FE_U+5C42 1
 62
   179
420
  2234388
370
    35
100
AcDbVertex
100
AcDb2dVertex
 10
202.6470296900186
 20
-20.51539752896475
 30
0.0
  0
VERTEX
  5
D0
330
C5
100
AcDbEntity
  8
_U+56FE_U+5C42 1
 62
   179
420
  2234388
370
    35
100
AcDbVertex
100
AcDb2dVertex
 10
198.6470369813289
 20
-20.51539752896475
 30
0.0
  0
VERTEX
  5
D1
330
C5
100
AcDbEntity
  8
_U+56FE_U+5C42 1
 62
   179
420
  2234388
370
    35
100
AcDbVertex
100
AcDb2dVertex
 10
198.6470369813289
 20
-24.96013053295339
 30
0.0
  0
VERTEX
  5
D2
330
C5
100
AcDbEntity
  8
_U+56FE_U+5C42 1
 62
   179
420
  2234388
370
    35
100
AcDbVertex
100
AcDb2dVertex
 10
199.5470251131569
 20
-24.96013053295339
 30
0.0
  0
VERTEX
  5
D3
330
C5
100
AcDbEntity
  8
_U+56FE_U+5C42 1
 62
   179
420
  2234388
370
    35
100
AcDbVertex
100
AcDb2dVertex
 10
199.5470251131569
 20
-26.76012832845608
 30
0.0
  0
VERTEX
  5
D4
330
C5
100
AcDbEntity
  8
_U+56FE_U+5C42 1
 62
   179
420
  2234388
370
    35
100
AcDbVertex
100
AcDb2dVertex
 10
198.6470369813289
 20
-26.76012832845608
 30
0.0
  0
VERTEX
  5
D5
330
C5
100
AcDbEntity
  8
_U+56FE_U+5C42 1
 62
   179
420
  2234388
370
    35
100
AcDbVertex
100
AcDb2dVertex
 10
198.6470369813289
 20
-30.11552214000873
 30
0.0
  0
VERTEX
  5
D6
330
C5
100
AcDbEntity
  8
_U+56FE_U+5C42 1
 62
   179
420
  2234388
370
    35
100
AcDbVertex
100
AcDb2dVertex
 10
199.5470251131569
 20
-30.11552214000873
 30
0.0
  0
VERTEX
  5
D7
330
C5
100
AcDbEntity
  8
_U+56FE_U+5C42 1
 62
   179
420
  2234388
370
    35
100
AcDbVertex
100
AcDb2dVertex
 10
199.5470251131569
 20
-31.91551993551142
 30
0.0
  0
VERTEX
  5
D8
330
C5
100
AcDbEntity
  8
_U+56FE_U+5C42 1
 62
   179
420
  2234388
370
    35
100
AcDbVertex
100
AcDb2dVertex
 10
198.6470369813289
 20
-31.91551993551142
 30
0.0
  0
VERTEX
  5
D9
330
C5
100
AcDbEntity
  8
_U+56FE_U+5C42 1
 62
   179
420
  2234388
370
    35
100
AcDbVertex
100
AcDb2dVertex
 10
198.6470369813289
 20
-39.22095257121762
 30
0.0
  0
VERTEX
  5
DA
330
C5
100
AcDbEntity
  8
_U+56FE_U+5C42 1
 62
   179
420
  2234388
370
    35
100
AcDbVertex
100
AcDb2dVertex
 10
198.1470244353385
 20
-39.22095257121762
 30
0.0
  0
VERTEX
  5
DB
330
C5
100
AcDbEntity
  8
_U+56FE_U+5C42 1
 62
   179
420
  2234388
370
    35
100
AcDbVertex
100
AcDb2dVertex
 10
198.1470244353385
 20
-41.22095969148584
 30
0.0
  0
VERTEX
  5
DC
330
C5
100
AcDbEntity
  8
_U+56FE_U+5C42 1
 62
   179
420
  2234388
370
    35
100
AcDbVertex
100
AcDb2dVertex
 10
198.6470369813289
 20
-41.22095969148584
 30
0.0
  0
VERTEX
  5
DD
330
C5
100
AcDbEntity
  8
_U+56FE_U+5C42 1
 62
   179
420
  2234388
370
    35
100
AcDbVertex
100
AcDb2dVertex
 10
202.6470296900186
 20
-41.22095969148584
 30
0.0
  0
VERTEX
  5
DE
330
C5
100
AcDbEntity
  8
_U+56FE_U+5C42 1
 62
   179
420
  2234388
370
    35
100
AcDbVertex
100
AcDb2dVertex
 10
203.147042236009
 20
-41.22095969148584
 30
0.0
  0
VERTEX
  5
DF
330
C5
100
AcDbEntity
  8
_U+56FE_U+5C42 1
 62
   179
420
  2234388
370
    35
100
AcDbVertex
100
AcDb2dVertex
 10
203.147042236009
 20
-39.22095257121762
 30
0.0
  0
VERTEX
  5
E0
330
C5
100
AcDbEntity
  8
_U+56FE_U+5C42 1
 62
   179
420
  2234388
370
    35
100
AcDbVertex
100
AcDb2dVertex
 10
202.6470296900186
 20
-39.22095257121762
 30
0.0
  0
SEQEND
  5
E1
330
C5
100
AcDbEntity
  8
_U+56FE_U+5C42 1
 62
   179
420
  2234388
370
    35
  0
ENDBLK
  5
8A
330
87
100
AcDbEntity
  8
0
100
AcDbBlockEnd
  0
BLOCK
  5
E4
330
E2
100
AcDbEntity
  8
0
100
AcDbBlockBegin
  2
block 6
 70
     0
 10
0.0
 20
0.0
 30
0.0
  3
block 6
  1

  0
POLYLINE
  5
E6
330
E2
100
AcDbEntity
  8
_U+56FE_U+5C42 1
 62
   179
420
  2234388
370
    35
100
AcDb2dPolyline
 66
     1
 10
0.0
 20
0.0
 30
0.0
  0
VERTEX
  5
E7
330
E6
100
AcDbEntity
  8
_U+56FE_U+5C42 1
 62
   179
420
  2234388
370
    35
100
AcDbVertex
100
AcDb2dVertex
 10
180.1165578191827
 20
-14.94800627732226
 30
0.0
  0
VERTEX
  5
E8
330
E6
100
AcDbEntity
  8
_U+56FE_U+5C42 1
 62
   179
420
  2234388
370
    35
100
AcDbVertex
100
AcDb2dVertex
 10
180.1165578191827
 20
-18.94802051785872
 30
0.0
  0
VERTEX
  5
E9
330
E6
100
AcDbEntity
  8
_U+56FE_U+5C42 1
 62
   179
420
  2234388
370
    35
100
AcDbVertex
100
AcDb2dVertex
 10
181.11653984747
 20
-18.94802051785872
 30
0.0
  0
VERTEX
  5
EA
330
E6
100
AcDbEntity
  8
_U+56FE_U+5C42 1
 62
   179
420
  2234388
370
    35
100
AcDbVertex
100
AcDb2dVertex
 10
181.11653984747
 20
-17.14802272235603
 30
0.0
  0
VERTEX
  5
EB
330
E6
100
AcDbEntity
  8
_U+56FE_U+5C42 1
 62
   179
420
  2234388
370
    35
100
AcDbVertex
100
AcDb2dVertex
 10
183.1165469677383
 20
-17.14802272235603
 30
0.0
  0
VERTEX
  5
EC
330
E6
100
AcDbEntity
  8
_U+56FE_U+5C42 1
 62
   179
420
  2234388
370
    35
100
AcDbVertex
100
AcDb2dVertex
 10
183.1165469677383
 20
-18.94802051785872
 30
0.0
  0
VERTEX
  5
ED
330
E6
100
AcDbEntity
  8
_U+56FE_U+5C42 1
 62
   179
420
  2234388
370
    35
100
AcDbVertex
100
AcDb2dVertex
 10
190.381779645501
 20
-18.94802051785872
 30
0.0
  0
VERTEX
  5
EE
330
E6
100
AcDbEntity
  8
_U+56FE_U+5C42 1
 62
   179
420
  2234388
370
    35
100
AcDbVertex
100
AcDb2dVertex
 10
190.381779645501
 20
-17.14802272235603
 30
0.0
  0
VERTEX
  5
EF
330
E6
100
AcDbEntity
  8
_U+56FE_U+5C42 1
 62
   179
420
  2234388
370
    35
100
AcDbVertex
100
AcDb2dVertex
 10
192.3817867657692
 20
-17.14802272235603
 30
0.0
  0
VERTEX
  5
F0
330
E6
100
AcDbEntity
  8
_U+56FE_U+5C42 1
 62
   179
420
  2234388
370
    35
100
AcDbVertex
100
AcDb2dVertex
 10
192.3817867657692
 20
-18.94802051785872
 30
0.0
  0
VERTEX
  5
F1
330
E6
100
AcDbEntity
  8
_U+56FE_U+5C42 1
 62
   179
420
  2234388
370
    35
100
AcDbVertex
100
AcDb2dVertex
 10
199.6470194435319
 20
-18.94802051785872
 30
0.0
  0
VERTEX
  5
F2
330
E6
100
AcDbEntity
  8
_U+56FE_U+5C42 1
 62
   179
420
  2234388
370
    35
100
AcDbVertex
100
AcDb2dVertex
 10
199.6470194435319
 20
-17.14802272235603
 30
0.0
  0
VERTEX
  5
F3
330
E6
100
AcDbEntity
  8
_U+56FE_U+5C42 1
 62
   179
420
  2234388
370
    35
100
AcDbVertex
100
AcDb2dVertex
 10
201.6470265638001
 20
-17.14802272235603
 30
0.0
  0
VERTEX
  5
F4
330
E6
100
AcDbEntity
  8
_U+56FE_U+5C42 1
 62
   179
420
  2234388
370
    35
100
AcDbVertex
100
AcDb2dVertex
 10
201.6470265638001
 20
-18.94802051785872
 30
0.0
  0
VERTEX
  5
F5
330
E6
100
AcDbEntity
  8
_U+56FE_U+5C42 1
 62
   179
420
  2234388
370
    35
100
AcDbVertex
100
AcDb2dVertex
 10
202.6470301239342
 20
-18.94802051785872
 30
0.0
  0
VERTEX
  5
F6
330
E6
100
AcDbEntity
  8
_U+56FE_U+5C42 1
 62
   179
420
  2234388
370
    35
100
AcDbVertex
100
AcDb2dVertex
 10
202.6470301239342
 20
-14.94800627732226
 30
0.0
  0
VERTEX
  5
F7
330
E6
100
AcDbEntity
  8
_U+56FE_U+5C42 1
 62
   179
420
  2234388
370
    35
100
AcDbVertex
100
AcDb2dVertex
 10
180.1165578191827
 20
-14.94800627732226
 30
0.0
  0
SEQEND
  5
F8
330
E6
100
AcDbEntity
  8
_U+56FE_U+5C42 1
 62
   179
420
  2234388
370
    35
  0
POLYLINE
  5
F9
330
E2
100
AcDbEntity
  8
_U+56FE_U+5C42 1
 62
   179
420
  2234388
370
    35
100
AcDb2dPolyline
 66
     1
 10
0.0
 20
0.0
 30
0.0
  0
VERTEX
  5
FA
330
F9
100
AcDbEntity
  8
_U+56FE_U+5C42 1
 62
   179
420
  2234388
370
    35
100
AcDbVertex
100
AcDb2dVertex
 10
202.6470301239342
 20
-12.94799915705404
 30
0.0
  0
VERTEX
  5
FB
330
F9
100
AcDbEntity
  8
_U+56FE_U+5C42 1
 62
   179
420
  2234388
370
    35
100
AcDbVertex
100
AcDb2dVertex
 10
202.6470301239342
 20
-8.947984916517582
 30
0.0
  0
VERTEX
  5
FC
330
F9
100
AcDbEntity
  8
_U+56FE_U+5C42 1
 62
   179
420
  2234388
370
    35
100
AcDbVertex
100
AcDb2dVertex
 10
201.6470480956469
 20
-8.947984916517582
 30
0.0
  0
VERTEX
  5
FD
330
F9
100
AcDbEntity
  8
_U+56FE_U+5C42 1
 62
   179
420
  2234388
370
    35
100
AcDbVertex
100
AcDb2dVertex
 10
201.6470480956469
 20
-10.74798271202027
 30
0.0
  0
VERTEX
  5
FE
330
F9
100
AcDbEntity
  8
_U+56FE_U+5C42 1
 62
   179
420
  2234388
370
    35
100
AcDbVertex
100
AcDb2dVertex
 10
199.6470409753786
 20
-10.74798271202027
 30
0.0
  0
VERTEX
  5
FF
330
F9
100
AcDbEntity
  8
_U+56FE_U+5C42 1
 62
   179
420
  2234388
370
    35
100
AcDbVertex
100
AcDb2dVertex
 10
199.6470409753786
 20
-8.947984916517582
 30
0.0
  0
VERTEX
  5
100
330
F9
100
AcDbEntity
  8
_U+56FE_U+5C42 1
 62
   179
420
  2234388
370
    35
100
AcDbVertex
100
AcDb2dVertex
 10
192.3818082976159
 20
-8.947984916517582
 30
0.0
  0
VERTEX
  5
101
330
F9
100
AcDbEntity
  8
_U+56FE_U+5C42 1
 62
   179
420
  2234388
370
    35
100
AcDbVertex
100
AcDb2dVertex
 10
192.3818082976159
 20
-10.74798271202027
 30
0.0
  0
VERTEX
  5
102
330
F9
100
AcDbEntity
  8
_U+56FE_U+5C42 1
 62
   179
420
  2234388
370
    35
100
AcDbVertex
100
AcDb2dVertex
 10
190.3818011773477
 20
-10.74798271202027
 30
0.0
  0
VERTEX
  5
103
330
F9
100
AcDbEntity
  8
_U+56FE_U+5C42 1
 62
   179
420
  2234388
370
    35
100
AcDbVertex
100
AcDb2dVertex
 10
190.3818011773477
 20
-8.947984916517582
 30
0.0
  0
VERTEX
  5
104
330
F9
100
AcDbEntity
  8
_U+56FE_U+5C42 1
 62
   179
420
  2234388
370
    35
100
AcDbVertex
100
AcDb2dVertex
 10
183.116568499585
 20
-8.947984916517582
 30
0.0
  0
VERTEX
  5
105
330
F9
100
AcDbEntity
  8
_U+56FE_U+5C42 1
 62
   179
420
  2234388
370
    35
100
AcDbVertex
100
AcDb2dVertex
 10
183.116568499585
 20
-10.74798271202027
 30
0.0
  0
VERTEX
  5
106
330
F9
100
AcDbEntity
  8
_U+56FE_U+5C42 1
 62
   179
420
  2234388
370
    35
100
AcDbVertex
100
AcDb2dVertex
 10
181.1165613793168
 20
-10.74798271202027
 30
0.0
  0
VERTEX
  5
107
330
F9
100
AcDbEntity
  8
_U+56FE_U+5C42 1
 62
   179
420
  2234388
370
    35
100
AcDbVertex
100
AcDb2dVertex
 10
181.1165613793168
 20
-8.947984916517582
 30
0.0
  0
VERTEX
  5
108
330
F9
100
AcDbEntity
  8
_U+56FE_U+5C42 1
 62
   179
420
  2234388
370
    35
100
AcDbVertex
100
AcDb2dVertex
 10
180.1165578191827
 20
-8.947984916517582
 30
0.0
  0
VERTEX
  5
109
330
F9
100
AcDbEntity
  8
_U+56FE_U+5C42 1
 62
   179
420
  2234388
370
    35
100
AcDbVertex
100
AcDb2dVertex
 10
180.1165578191827
 20
-12.94799915705404
 30
0.0
  0
VERTEX
  5
10A
330
F9
100
AcDbEntity
  8
_U+56FE_U+5C42 1
 62
   179
420
  2234388
370
    35
100
AcDbVertex
100
AcDb2dVertex
 10
202.6470301239342
 20
-12.94799915705404
 30
0.0
  0
SEQEND
  5
10B
330
F9
100
AcDbEntity
  8
_U+56FE_U+5C42 1
 62
   179
420
  2234388
370
    35
  0
ENDBLK
  5
E5
330
E2
100
AcDbEntity
  8
0
100
AcDbBlockEnd
  0
BLOCK
  5
10E
330
10C
100
AcDbEntity
  8
0
100
AcDbBlockBegin
  2
block 7
 70
     0
 10
0.0
 20
0.0
 30
0.0
  3
block 7
  1

  0
SPLINE
  5
110
330
10C
100
AcDbEntity
  8
_U+56FE_U+5C42 1
 62
   179
420
  2234388
370
    35
100
AcDbSpline
210
0.0
220
0.0
230
1.0
 70
    11
 71
     3
 72
    17
 73
    13
 74
     0
 42
0.0000000001
 43
0.0000000001
 12
1.0
 22
0.0
 32
0.0
 13
1.0
 23
0.0
 33
0.0
 40
0.0
 40
0.0
 40
0.0
 40
0.0
 40
1.0
 40
1.0
 40
1.0
 40
2.0
 40
2.0
 40
2.0
 40
3.0
 40
3.0
 40
3.0
 40
4.0
 40
4.0
 40
4.0
 40
4.0
 10
105.0000721959722
 20
-41.22095969148616
 30
0.0
 10
105.0000721959722
 20
-58.9190191869795
 30
0.0
 10
90.65296024339969
 20
-73.26613113955136
 30
0.0
 10
72.95490074790699
 20
-73.26613113955136
 30
0.0
 10
55.25684125241396
 20
-73.26613113955136
 30
0.0
 10
40.90972929984147
 20
-58.9190191869795
 30
0.0
 10
40.90972929984147
 20
-41.22095969148616
 30
0.0
 10
40.90972929984147
 20
-23.52290019599282
 30
0.0
 10
55.25684125241396
 20
-9.175788243420646
 30
0.0
 10
72.95490074790699
 20
-9.175788243420646
 30
0.0
 10
90.65296024339969
 20
-9.175788243420646
 30
0.0
 10
105.0000721959722
 20
-23.52290019599282
 30
0.0
 10
105.0000721959722
 20
-41.22095969148616
 30
0.0
  0
SPLINE
  5
111
330
10C
100
AcDbEntity
  8
_U+56FE_U+5C42 1
 62
   179
420
  2234388
370
    35
100
AcDbSpline
210
0.0
220
0.0
230
1.0
 70
    11
 71
     3
 72
    17
 73
    13
 74
     0
 42
0.0000000001
 43
0.0000000001
 12
1.0
 22
0.0
 32
0.0
 13
1.0
 23
0.0
 33
0.0
 40
0.0
 40
0.0
 40
0.0
 40
0.0
 40
1.0
 40
1.0
 40
1.0
 40
2.0
 40
2.0
 40
2.0
 40
3.0
 40
3.0
 40
3.0
 40
4.0
 40
4.0
 40
4.0
 40
4.0
 10
73.52527649561301
 20
-41.22095969148616
 30
0.0
 10
73.52527649561301
 20
-41.53596951860007
 30
0.0
 10
73.26991057502089
 20
-41.79133543919219
 30
0.0
 10
72.95490074790699
 20
-41.79133543919219
 30
0.0
 10
72.63989092079308
 20
-41.79133543919219
 30
0.0
 10
72.38452500020097
 20
-41.53596951860007
 30
0.0
 10
72.38452500020097
 20
-41.22095969148616
 30
0.0
 10
72.38452500020097
 20
-40.90594986437225
 30
0.0
 10
72.63989092079308
 20
-40.65058394378013
 30
0.0
 10
72.95490074790699
 20
-40.65058394378013
 30
0.0
 10
73.26991057502089
 20
-40.65058394378013
 30
0.0
 10
73.52527649561301
 20
-40.90594986437225
 30
0.0
 10
73.52527649561301
 20
-41.22095969148616
 30
0.0
  0
POLYLINE
  5
112
330
10C
100
AcDbEntity
  8
_U+56FE_U+5C42 1
 62
   179
420
  2234388
370
    35
100
AcDb2dPolyline
 66
     1
 10
0.0
 20
0.0
 30
0.0
  0
VERTEX
  5
113
330
112
100
AcDbEntity
  8
_U+56FE_U+5C42 1
 62
   179
420
  2234388
370
    35
100
AcDbVertex
100
AcDb2dVertex
 10
69.42576851145019
 20
-52.03733348459578
 30
0.0
  0
VERTEX
  5
114
330
112
100
AcDbEntity
  8
_U+56FE_U+5C42 1
 62
   179
420
  2234388
370
    35
100
AcDbVertex
100
AcDb2dVertex
 10
59.42576851395054
 20
-52.03733348459578
 30
0.0
  0
VERTEX
  5
115
330
112
100
AcDbEntity
  8
_U+56FE_U+5C42 1
 62
   179
420
  2234388
370
    35
100
AcDbVertex
100
AcDb2dVertex
 10
59.42576851395054
 20
-50.23733348504554
 30
0.0
  0
VERTEX
  5
116
330
112
100
AcDbEntity
  8
_U+56FE_U+5C42 1
 62
   179
420
  2234388
370
    35
100
AcDbVertex
100
AcDb2dVertex
 10
69.42576851145019
 20
-50.23733348504554
 30
0.0
  0
VERTEX
  5
117
330
112
100
AcDbEntity
  8
_U+56FE_U+5C42 1
 62
   179
420
  2234388
370
    35
100
AcDbVertex
100
AcDb2dVertex
 10
69.42576851145019
 20
-52.03733348459578
 30
0.0
  0
SEQEND
  5
118
330
112
100
AcDbEntity
  8
_U+56FE_U+5C42 1
 62
   179
420
  2234388
370
    35
  0
POLYLINE
  5
119
330
10C
100
AcDbEntity
  8
_U+56FE_U+5C42 1
 62
   179
420
  2234388
370
    35
100
AcDb2dPolyline
 66
     1
 10
0.0
 20
0.0
 30
0.0
  0
VERTEX
  5
11A
330
119
100
AcDbEntity
  8
_U+56FE_U+5C42 1
 62
   179
420
  2234388
370
    35
100
AcDbVertex
100
AcDb2dVertex
 10
92.42576850570009
 20
-52.03733348459578
 30
0.0
  0
VERTEX
  5
11B
330
119
100
AcDbEntity
  8
_U+56FE_U+5C42 1
 62
   179
420
  2234388
370
    35
100
AcDbVertex
100
AcDb2dVertex
 10
82.42576850820109
 20
-52.03733348459578
 30
0.0
  0
VERTEX
  5
11C
330
119
100
AcDbEntity
  8
_U+56FE_U+5C42 1
 62
   179
420
  2234388
370
    35
100
AcDbVertex
100
AcDb2dVertex
 10
82.42576850820109
 20
-50.23733348504554
 30
0.0
  0
VERTEX
  5
11D
330
119
100
AcDbEntity
  8
_U+56FE_U+5C42 1
 62
   179
420
  2234388
370
    35
100
AcDbVertex
100
AcDb2dVertex
 10
92.42576850570009
 20
-50.23733348504554
 30
0.0
  0
VERTEX
  5
11E
330
119
100
AcDbEntity
  8
_U+56FE_U+5C42 1
 62
   179
420
  2234388
370
    35
100
AcDbVertex
100
AcDb2dVertex
 10
92.42576850570009
 20
-52.03733348459578
 30
0.0
  0
SEQEND
  5
11F
330
119
100
AcDbEntity
  8
_U+56FE_U+5C42 1
 62
   179
420
  2234388
370
    35
  0
POLYLINE
  5
120
330
10C
100
AcDbEntity
  8
_U+56FE_U+5C42 1
 62
   179
420
  2234388
370
    35
100
AcDb2dPolyline
 66
     1
 10
0.0
 20
0.0
 30
0.0
  0
VERTEX
  5
121
330
120
100
AcDbEntity
  8
_U+56FE_U+5C42 1
 62
   179
420
  2234388
370
    35
100
AcDbVertex
100
AcDb2dVertex
 10
65.32576851247548
 20
-62.03733348209607
 30
0.0
  0
VERTEX
  5
122
330
120
100
AcDbEntity
  8
_U+56FE_U+5C42 1
 62
   179
420
  2234388
370
    35
100
AcDbVertex
100
AcDb2dVertex
 10
63.52576851292525
 20
-62.03733348209607
 30
0.0
  0
VERTEX
  5
123
330
120
100
AcDbEntity
  8
_U+56FE_U+5C42 1
 62
   179
420
  2234388
370
    35
100
AcDbVertex
100
AcDb2dVertex
 10
63.52576851292525
 20
-66.03733569977986
 30
0.0
  0
VERTEX
  5
124
330
120
100
AcDbEntity
  8
_U+56FE_U+5C42 1
 62
   179
420
  2234388
370
    35
100
AcDbVertex
100
AcDb2dVertex
 10
65.32576851247548
 20
-66.03733569977986
 30
0.0
  0
VERTEX
  5
125
330
120
100
AcDbEntity
  8
_U+56FE_U+5C42 1
 62
   179
420
  2234388
370
    35
100
AcDbVertex
100
AcDb2dVertex
 10
65.32576851247548
 20
-62.03733348209607
 30
0.0
  0
SEQEND
  5
126
330
120
100
AcDbEntity
  8
_U+56FE_U+5C42 1
 62
   179
420
  2234388
370
    35
  0
POLYLINE
  5
127
330
10C
100
AcDbEntity
  8
_U+56FE_U+5C42 1
 62
   179
420
  2234388
370
    35
100
AcDb2dPolyline
 66
     1
 10
0.0
 20
0.0
 30
0.0
  0
VERTEX
  5
128
330
127
100
AcDbEntity
  8
_U+56FE_U+5C42 1
 62
   179
420
  2234388
370
    35
100
AcDbVertex
100
AcDb2dVertex
 10
88.32576850672571
 20
-62.03733348209607
 30
0.0
  0
VERTEX
  5
129
330
127
100
AcDbEntity
  8
_U+56FE_U+5C42 1
 62
   179
420
  2234388
370
    35
100
AcDbVertex
100
AcDb2dVertex
 10
86.52576850717547
 20
-62.03733348209607
 30
0.0
  0
VERTEX
  5
12A
330
127
100
AcDbEntity
  8
_U+56FE_U+5C42 1
 62
   179
420
  2234388
370
    35
100
AcDbVertex
100
AcDb2dVertex
 10
86.52576850717547
 20
-66.03733569977986
 30
0.0
  0
VERTEX
  5
12B
330
127
100
AcDbEntity
  8
_U+56FE_U+5C42 1
 62
   179
420
  2234388
370
    35
100
AcDbVertex
100
AcDb2dVertex
 10
88.32576850672571
 20
-66.03733569977986
 30
0.0
  0
VERTEX
  5
12C
330
127
100
AcDbEntity
  8
_U+56FE_U+5C42 1
 62
   179
420
  2234388
370
    35
100
AcDbVertex
100
AcDb2dVertex
 10
88.32576850672571
 20
-62.03733348209607
 30
0.0
  0
SEQEND
  5
12D
330
127
100
AcDbEntity
  8
_U+56FE_U+5C42 1
 62
   179
420
  2234388
370
    35
  0
ENDBLK
  5
10F
330
10C
100
AcDbEntity
  8
0
100
AcDbBlockEnd
  0
BLOCK
  5
130
330
12E
100
AcDbEntity
  8
0
100
AcDbBlockBegin
  2
block 8
 70
     0
 10
0.0
 20
0.0
 30
0.0
  3
block 8
  1

  0
INSERT
  5
133
330
12E
100
AcDbEntity
  8
_U+56FE_U+5C42 1
100
AcDbBlockReference
  2
block 9
 10
0.0
 20
0.0
 30
0.0
  0
ENDBLK
  5
131
330
12E
100
AcDbEntity
  8
0
100
AcDbBlockEnd
  0
BLOCK
  5
134
330
132
100
AcDbEntity
  8
0
100
AcDbBlockBegin
  2
block 9
 70
     0
 10
0.0
 20
0.0
 30
0.0
  3
block 9
  1

  0
SPLINE
  5
136
330
132
100
AcDbEntity
  8
_U+56FE_U+5C42 1
 62
   179
420
  2234388
370
    35
100
AcDbSpline
210
0.0
220
0.0
230
1.0
 70
    11
 71
     3
 72
    29
 73
    25
 74
     0
 42
0.0000000001
 43
0.0000000001
 12
1.0
 22
0.0
 32
0.0
 13
1.0
 23
0.0
 33
0.0
 40
0.0
 40
0.0
 40
0.0
 40
0.0
 40
1.0
 40
1.0
 40
1.0
 40
2.0
 40
2.0
 40
2.0
 40
3.0
 40
3.0
 40
3.0
 40
4.0
 40
4.0
 40
4.0
 40
5.0
 40
5.0
 40
5.0
 40
6.0
 40
6.0
 40
6.0
 40
7.0
 40
7.0
 40
7.0
 40
8.0
 40
8.0
 40
8.0
 40
8.0
 10
202.7118606148767
 20
-57.3193216284818
 30
0.0
 10
202.7118606148767
 20
-57.3193216284818
 30
0.0
 10
159.7104370556974
 20
-57.31932162977707
 30
0.0
 10
159.7104370556974
 20
-57.31932162977707
 30
0.0
 10
158.6058686624985
 20
-57.31932162981076
 30
0.0
 10
157.710439058612
 20
-56.42389202738345
 30
0.0
 10
157.7104390568454
 20
-55.31932363418426
 30
0.0
 10
157.7104390568454
 20
-55.31932363418426
 30
0.0
 10
157.7104390568454
 20
-55.31931963416197
 30
0.0
 10
157.7104390568454
 20
-55.31931963416197
 30
0.0
 10
157.7104390550788
 20
-54.21475123651516
 30
0.0
 10
158.6058686615822
 20
-53.31932162860968
 30
0.0
 10
159.7104370592293
 20
-53.31932162864754
 30
0.0
 10
159.7104370592293
 20
-53.31932162864754
 30
0.0
 10
202.7118606165285
 20
-53.31932163011703
 30
0.0
 10
202.7118606165285
 20
-53.31932163011703
 30
0.0
 10
203.8164290135994
 20
-53.31932163015521
 30
0.0
 10
204.7118586185261
 20
-54.21475123963896
 30
0.0
 10
204.711858612942
 20
-55.31931963671015
 30
0.0
 10
204.711858612942
 20
-55.31931963671015
 30
0.0
 10
204.711858612942
 20
-55.31932364046682
 30
0.0
 10
204.711858612942
 20
-55.31932364046682
 30
0.0
 10
204.711858607358
 20
-56.42389203055152
 30
0.0
 10
203.8164290049615
 20
-57.31932162844844
 30
0.0
 10
202.7118606148767
 20
-57.3193216284818
 30
0.0
  0
SPLINE
  5
137
330
132
100
AcDbEntity
  8
_U+56FE_U+5C42 1
 62
   179
420
  2234388
370
    35
100
AcDbSpline
210
0.0
220
0.0
230
1.0
 70
    11
 71
     3
 72
    17
 73
    13
 74
     0
 42
0.0000000001
 43
0.0000000001
 12
1.0
 22
0.0
 32
0.0
 13
1.0
 23
0.0
 33
0.0
 40
0.0
 40
0.0
 40
0.0
 40
0.0
 40
1.0
 40
1.0
 40
1.0
 40
2.0
 40
2.0
 40
2.0
 40
3.0
 40
3.0
 40
3.0
 40
4.0
 40
4.0
 40
4.0
 40
4.0
 10
159.7973486161387
 20
-55.81932165015
 30
0.0
 10
159.521206241307
 20
-55.81932165015
 30
0.0
 10
159.2973486162629
 20
-55.59546402510588
 30
0.0
 10
159.2973486162629
 20
-55.31932165027479
 30
0.0
 10
159.2973486162629
 20
-55.0431792754437
 30
0.0
 10
159.521206241307
 20
-54.81932165039959
 30
0.0
 10
159.7973486161387
 20
-54.81932165039959
 30
0.0
 10
160.0734909909692
 20
-54.81932165039959
 30
0.0
 10
160.2973486160133
 20
-55.0431792754437
 30
0.0
 10
160.2973486160133
 20
-55.31932165027479
 30
0.0
 10
160.2973486160133
 20
-55.59546402510588
 30
0.0
 10
160.0734909909692
 20
-55.81932165015
 30
0.0
 10
159.7973486161387
 20
-55.81932165015
 30
0.0
  0
ENDBLK
  5
135
330
132
100
AcDbEntity
  8
0
100
AcDbBlockEnd
  0
BLOCK
  5
13A
330
138
100
AcDbEntity
  8
0
100
AcDbBlockBegin
  2
block 10
 70
     0
 10
0.0
 20
0.0
 30
0.0
  3
block 10
  1

  0
SPLINE
  5
13C
330
138
100
AcDbEntity
  8
_U+56FE_U+5C42 1
 62
   179
420
  2234388
370
    35
100
AcDbSpline
210
0.0
220
0.0
230
1.0
 70
    11
 71
     3
 72
    44
 73
    40
 74
     0
 42
0.0000000001
 43
0.0000000001
 12
1.0
 22
0.0
 32
0.0
 13
1.0
 23
0.0
 33
0.0
 40
0.0
 40
0.0
 40
0.0
 40
0.0
 40
1.0
 40
1.0
 40
1.0
 40
2.0
 40
2.0
 40
2.0
 40
3.0
 40
3.0
 40
3.0
 40
4.0
 40
4.0
 40
4.0
 40
5.0
 40
5.0
 40
5.0
 40
6.0
 40
6.0
 40
6.0
 40
7.0
 40
7.0
 40
7.0
 40
8.0
 40
8.0
 40
8.0
 40
9.0
 40
9.0
 40
9.0
 40
10.0
 40
10.0
 40
10.0
 40
11.0
 40
11.0
 40
11.0
 40
12.0
 40
12.0
 40
12.0
 40
13.0
 40
13.0
 40
13.0
 40
13.0
 10
99.18966442889518
 20
-87.19673139048582
 30
0.0
 10
99.18966442889518
 20
-87.19673139048582
 30
0.0
 10
99.18966442889518
 20
-89.19673851075406
 30
0.0
 10
99.18966442889518
 20
-89.19673851075406
 30
0.0
 10
99.18966442889518
 20
-89.19673851075406
 30
0.0
 10
89.08965646294178
 20
-89.19673851075406
 30
0.0
 10
89.08965646294178
 20
-89.19673851075406
 30
0.0
 10
89.08965646294178
 20
-89.19673851075406
 30
0.0
 10
89.08965646294178
 20
-91.69673664516594
 30
0.0
 10
89.08965646294178
 20
-91.69673664516594
 30
0.0
 10
89.08965646294178
 20
-91.69673664516594
 30
0.0
 10
87.28965866743877
 20
-91.69673664516594
 30
0.0
 10
87.28965866743877
 20
-91.69673664516594
 30
0.0
 10
87.28965866743877
 20
-91.69673664516594
 30
0.0
 10
87.28965866743877
 20
-89.19673851075406
 30
0.0
 10
87.28965866743877
 20
-89.19673851075406
 30
0.0
 10
87.28965866743877
 20
-89.19673851075406
 30
0.0
 10
87.18966477097939
 20
-89.19673851075406
 30
0.0
 10
87.18966477097939
 20
-89.19673851075406
 30
0.0
 10
87.18966477097939
 20
-89.19673851075406
 30
0.0
 10
85.18965765071117
 20
-89.19673851075406
 30
0.0
 10
85.18965765071117
 20
-89.19673851075406
 30
0.0
 10
85.18965765071117
 20
-89.19673851075406
 30
0.0
 10
85.18965765071117
 20
-92.19672765930962
 30
0.0
 10
85.18965765071117
 20
-92.19672765930962
 30
0.0
 10
85.18965765071117
 20
-93.30128986742106
 30
0.0
 10
86.08508103102116
 20
-94.19673477957784
 30
0.0
 10
87.18966477097939
 20
-94.19673477957784
 30
0.0
 10
87.18966477097939
 20
-94.19673477957784
 30
0.0
 10
99.18966442889518
 20
-94.19673477957784
 30
0.0
 10
99.18966442889518
 20
-94.19673477957784
 30
0.0
 10
101.3988103769652
 20
-94.19673477957784
 30
0.0
 10
103.1896571375852
 20
-92.40586648711074
 30
0.0
 10
103.1896571375852
 20
-90.19674207088816
 30
0.0
 10
103.1896571375852
 20
-90.19674207088816
 30
0.0
 10
103.1896571375852
 20
-87.19673139048582
 30
0.0
 10
103.1896571375852
 20
-87.19673139048582
 30
0.0
 10
103.1896571375852
 20
-87.19673139048582
 30
0.0
 10
99.18966442889518
 20
-87.19673139048582
 30
0.0
 10
99.18966442889518
 20
-87.19673139048582
 30
0.0
  0
SPLINE
  5
13D
330
138
100
AcDbEntity
  8
_U+56FE_U+5C42 1
 62
   179
420
  2234388
370
    35
100
AcDbSpline
210
0.0
220
0.0
230
1.0
 70
    11
 71
     3
 72
    44
 73
    40
 74
     0
 42
0.0000000001
 43
0.0000000001
 12
1.0
 22
0.0
 32
0.0
 13
1.0
 23
0.0
 33
0.0
 40
0.0
 40
0.0
 40
0.0
 40
0.0
 40
1.0
 40
1.0
 40
1.0
 40
2.0
 40
2.0
 40
2.0
 40
3.0
 40
3.0
 40
3.0
 40
4.0
 40
4.0
 40
4.0
 40
5.0
 40
5.0
 40
5.0
 40
6.0
 40
6.0
 40
6.0
 40
7.0
 40
7.0
 40
7.0
 40
8.0
 40
8.0
 40
8.0
 40
9.0
 40
9.0
 40
9.0
 40
10.0
 40
10.0
 40
10.0
 40
11.0
 40
11.0
 40
11.0
 40
12.0
 40
12.0
 40
12.0
 40
13.0
 40
13.0
 40
13.0
 40
13.0
 10
99.18966442889518
 20
-78.77847948519955
 30
0.0
 10
99.18966442889518
 20
-78.77847948519955
 30
0.0
 10
99.18966442889518
 20
-80.77848660546779
 30
0.0
 10
99.18966442889518
 20
-80.77848660546779
 30
0.0
 10
99.18966442889518
 20
-80.77848660546779
 30
0.0
 10
89.08965646294178
 20
-80.77848660546779
 30
0.0
 10
89.08965646294178
 20
-80.77848660546779
 30
0.0
 10
89.08965646294178
 20
-80.77848660546779
 30
0.0
 10
89.08965646294178
 20
-83.27848473987969
 30
0.0
 10
89.08965646294178
 20
-83.27848473987969
 30
0.0
 10
89.08965646294178
 20
-83.27848473987969
 30
0.0
 10
87.28965866743877
 20
-83.27848473987969
 30
0.0
 10
87.28965866743877
 20
-83.27848473987969
 30
0.0
 10
87.28965866743877
 20
-83.27848473987969
 30
0.0
 10
87.28965866743877
 20
-80.77848660546779
 30
0.0
 10
87.28965866743877
 20
-80.77848660546779
 30
0.0
 10
87.28965866743877
 20
-80.77848660546779
 30
0.0
 10
87.18966477097939
 20
-80.77848660546779
 30
0.0
 10
87.18966477097939
 20
-80.77848660546779
 30
0.0
 10
87.18966477097939
 20
-80.77848660546779
 30
0.0
 10
85.18965765071117
 20
-80.77848660546779
 30
0.0
 10
85.18965765071117
 20
-80.77848660546779
 30
0.0
 10
85.18965765071117
 20
-80.77848660546779
 30
0.0
 10
85.18965765071117
 20
-83.77847575402335
 30
0.0
 10
85.18965765071117
 20
-83.77847575402335
 30
0.0
 10
85.18965765071117
 20
-84.8830379621348
 30
0.0
 10
86.08508103102116
 20
-85.77848287429157
 30
0.0
 10
87.18966477097939
 20
-85.77848287429157
 30
0.0
 10
87.18966477097939
 20
-85.77848287429157
 30
0.0
 10
99.18966442889518
 20
-85.77848287429157
 30
0.0
 10
99.18966442889518
 20
-85.77848287429157
 30
0.0
 10
101.3988103769652
 20
-85.77848287429157
 30
0.0
 10
103.1896571375852
 20
-83.98761458182511
 30
0.0
 10
103.1896571375852
 20
-81.7784901656019
 30
0.0
 10
103.1896571375852
 20
-81.7784901656019
 30
0.0
 10
103.1896571375852
 20
-78.77847948519955
 30
0.0
 10
103.1896571375852
 20
-78.77847948519955
 30
0.0
 10
103.1896571375852
 20
-78.77847948519955
 30
0.0
 10
99.18966442889518
 20
-78.77847948519955
 30
0.0
 10
99.18966442889518
 20
-78.77847948519955
 30
0.0
  0
ENDBLK
  5
13B
330
138
100
AcDbEntity
  8
0
100
AcDbBlockEnd
  0
BLOCK
  5
197
330
195
100
AcDbEntity
  8
0
100
AcDbBlockBegin
  2
block 11
 70
     0
 10
0.0
 20
0.0
 30
0.0
  3
block 11
  1

  0
POLYLINE
  5
199
330
195
100
AcDbEntity
  8
_U+56FE_U+5C42 1
 62
   179
420
  2234388
370
    35
100
AcDb2dPolyline
 66
     1
 10
0.0
 20
0.0
 30
0.0
  0
VERTEX
  5
19A
330
199
100
AcDbEntity
  8
_U+56FE_U+5C42 1
 62
   179
420
  2234388
370
    35
100
AcDbVertex
100
AcDb2dVertex
 10
59.92442124752236
 20
-89.22236420489001
 30
0.0
  0
VERTEX
  5
19B
330
199
100
AcDbEntity
  8
_U+56FE_U+5C42 1
 62
   179
420
  2234388
370
    35
100
AcDbVertex
100
AcDb2dVertex
 10
59.92442124752236
 20
-93.22237844542647
 30
0.0
  0
VERTEX
  5
19C
330
199
100
AcDbEntity
  8
_U+56FE_U+5C42 1
 62
   179
420
  2234388
370
    35
100
AcDbVertex
100
AcDb2dVertex
 10
60.92440327580969
 20
-93.22237844542647
 30
0.0
  0
VERTEX
  5
19D
330
199
100
AcDbEntity
  8
_U+56FE_U+5C42 1
 62
   179
420
  2234388
370
    35
100
AcDbVertex
100
AcDb2dVertex
 10
60.92440327580969
 20
-91.42238064992378
 30
0.0
  0
VERTEX
  5
19E
330
199
100
AcDbEntity
  8
_U+56FE_U+5C42 1
 62
   179
420
  2234388
370
    35
100
AcDbVertex
100
AcDb2dVertex
 10
62.92441039607792
 20
-91.42238064992378
 30
0.0
  0
VERTEX
  5
19F
330
199
100
AcDbEntity
  8
_U+56FE_U+5C42 1
 62
   179
420
  2234388
370
    35
100
AcDbVertex
100
AcDb2dVertex
 10
62.92441039607792
 20
-93.22237844542647
 30
0.0
  0
VERTEX
  5
1A0
330
199
100
AcDbEntity
  8
_U+56FE_U+5C42 1
 62
   179
420
  2234388
370
    35
100
AcDbVertex
100
AcDb2dVertex
 10
70.1896430738406
 20
-93.22237844542647
 30
0.0
  0
VERTEX
  5
1A1
330
199
100
AcDbEntity
  8
_U+56FE_U+5C42 1
 62
   179
420
  2234388
370
    35
100
AcDbVertex
100
AcDb2dVertex
 10
70.1896430738406
 20
-91.42238064992378
 30
0.0
  0
VERTEX
  5
1A2
330
199
100
AcDbEntity
  8
_U+56FE_U+5C42 1
 62
   179
420
  2234388
370
    35
100
AcDbVertex
100
AcDb2dVertex
 10
72.18965019410884
 20
-91.42238064992378
 30
0.0
  0
VERTEX
  5
1A3
330
199
100
AcDbEntity
  8
_U+56FE_U+5C42 1
 62
   179
420
  2234388
370
    35
100
AcDbVertex
100
AcDb2dVertex
 10
72.18965019410884
 20
-93.22237844542647
 30
0.0
  0
VERTEX
  5
1A4
330
199
100
AcDbEntity
  8
_U+56FE_U+5C42 1
 62
   179
420
  2234388
370
    35
100
AcDbVertex
100
AcDb2dVertex
 10
79.45488287187152
 20
-93.22237844542647
 30
0.0
  0
VERTEX
  5
1A5
330
199
100
AcDbEntity
  8
_U+56FE_U+5C42 1
 62
   179
420
  2234388
370
    35
100
AcDbVertex
100
AcDb2dVertex
 10
79.45488287187152
 20
-91.42238064992378
 30
0.0
  0
VERTEX
  5
1A6
330
199
100
AcDbEntity
  8
_U+56FE_U+5C42 1
 62
   179
420
  2234388
370
    35
100
AcDbVertex
100
AcDb2dVertex
 10
81.45488999213974
 20
-91.42238064992378
 30
0.0
  0
VERTEX
  5
1A7
330
199
100
AcDbEntity
  8
_U+56FE_U+5C42 1
 62
   179
420
  2234388
370
    35
100
AcDbVertex
100
AcDb2dVertex
 10
81.45488999213974
 20
-93.22237844542647
 30
0.0
  0
VERTEX
  5
1A8
330
199
100
AcDbEntity
  8
_U+56FE_U+5C42 1
 62
   179
420
  2234388
370
    35
100
AcDbVertex
100
AcDb2dVertex
 10
82.45489355227386
 20
-93.22237844542647
 30
0.0
  0
VERTEX
  5
1A9
330
199
100
AcDbEntity
  8
_U+56FE_U+5C42 1
 62
   179
420
  2234388
370
    35
100
AcDbVertex
100
AcDb2dVertex
 10
82.45489355227386
 20
-89.22236420489001
 30
0.0
  0
VERTEX
  5
1AA
330
199
100
AcDbEntity
  8
_U+56FE_U+5C42 1
 62
   179
420
  2234388
370
    35
100
AcDbVertex
100
AcDb2dVertex
 10
59.92442124752236
 20
-89.22236420489001
 30
0.0
  0
SEQEND
  5
1AB
330
199
100
AcDbEntity
  8
_U+56FE_U+5C42 1
 62
   179
420
  2234388
370
    35
  0
POLYLINE
  5
1AC
330
195
100
AcDbEntity
  8
_U+56FE_U+5C42 1
 62
   179
420
  2234388
370
    35
100
AcDb2dPolyline
 66
     1
 10
0.0
 20
0.0
 30
0.0
  0
VERTEX
  5
1AD
330
1AC
100
AcDbEntity
  8
_U+56FE_U+5C42 1
 62
   179
420
  2234388
370
    35
100
AcDbVertex
100
AcDb2dVertex
 10
82.45489355227386
 20
-87.22235708462179
 30
0.0
  0
VERTEX
  5
1AE
330
1AC
100
AcDbEntity
  8
_U+56FE_U+5C42 1
 62
   179
420
  2234388
370
    35
100
AcDbVertex
100
AcDb2dVertex
 10
82.45489355227386
 20
-83.22234284408533
 30
0.0
  0
VERTEX
  5
1AF
330
1AC
100
AcDbEntity
  8
_U+56FE_U+5C42 1
 62
   179
420
  2234388
370
    35
100
AcDbVertex
100
AcDb2dVertex
 10
81.45491152398685
 20
-83.22234284408533
 30
0.0
  0
VERTEX
  5
1B0
330
1AC
100
AcDbEntity
  8
_U+56FE_U+5C42 1
 62
   179
420
  2234388
370
    35
100
AcDbVertex
100
AcDb2dVertex
 10
81.45491152398685
 20
-85.02234063958802
 30
0.0
  0
VERTEX
  5
1B1
330
1AC
100
AcDbEntity
  8
_U+56FE_U+5C42 1
 62
   179
420
  2234388
370
    35
100
AcDbVertex
100
AcDb2dVertex
 10
79.4549044037183
 20
-85.02234063958802
 30
0.0
  0
VERTEX
  5
1B2
330
1AC
100
AcDbEntity
  8
_U+56FE_U+5C42 1
 62
   179
420
  2234388
370
    35
100
AcDbVertex
100
AcDb2dVertex
 10
79.4549044037183
 20
-83.22234284408533
 30
0.0
  0
VERTEX
  5
1B3
330
1AC
100
AcDbEntity
  8
_U+56FE_U+5C42 1
 62
   179
420
  2234388
370
    35
100
AcDbVertex
100
AcDb2dVertex
 10
72.18967172595593
 20
-83.22234284408533
 30
0.0
  0
VERTEX
  5
1B4
330
1AC
100
AcDbEntity
  8
_U+56FE_U+5C42 1
 62
   179
420
  2234388
370
    35
100
AcDbVertex
100
AcDb2dVertex
 10
72.18967172595593
 20
-85.02234063958802
 30
0.0
  0
VERTEX
  5
1B5
330
1AC
100
AcDbEntity
  8
_U+56FE_U+5C42 1
 62
   179
420
  2234388
370
    35
100
AcDbVertex
100
AcDb2dVertex
 10
70.18966460568738
 20
-85.02234063958802
 30
0.0
  0
VERTEX
  5
1B6
330
1AC
100
AcDbEntity
  8
_U+56FE_U+5C42 1
 62
   179
420
  2234388
370
    35
100
AcDbVertex
100
AcDb2dVertex
 10
70.18966460568738
 20
-83.22234284408533
 30
0.0
  0
VERTEX
  5
1B7
330
1AC
100
AcDbEntity
  8
_U+56FE_U+5C42 1
 62
   179
420
  2234388
370
    35
100
AcDbVertex
100
AcDb2dVertex
 10
62.92443192792502
 20
-83.22234284408533
 30
0.0
  0
VERTEX
  5
1B8
330
1AC
100
AcDbEntity
  8
_U+56FE_U+5C42 1
 62
   179
420
  2234388
370
    35
100
AcDbVertex
100
AcDb2dVertex
 10
62.92443192792502
 20
-85.02234063958802
 30
0.0
  0
VERTEX
  5
1B9
330
1AC
100
AcDbEntity
  8
_U+56FE_U+5C42 1
 62
   179
420
  2234388
370
    35
100
AcDbVertex
100
AcDb2dVertex
 10
60.92442480765647
 20
-85.02234063958802
 30
0.0
  0
VERTEX
  5
1BA
330
1AC
100
AcDbEntity
  8
_U+56FE_U+5C42 1
 62
   179
420
  2234388
370
    35
100
AcDbVertex
100
AcDb2dVertex
 10
60.92442480765647
 20
-83.22234284408533
 30
0.0
  0
VERTEX
  5
1BB
330
1AC
100
AcDbEntity
  8
_U+56FE_U+5C42 1
 62
   179
420
  2234388
370
    35
100
AcDbVertex
100
AcDb2dVertex
 10
59.92442124752236
 20
-83.22234284408533
 30
0.0
  0
VERTEX
  5
1BC
330
1AC
100
AcDbEntity
  8
_U+56FE_U+5C42 1
 62
   179
420
  2234388
370
    35
100
AcDbVertex
100
AcDb2dVertex
 10
59.92442124752236
 20
-87.22235708462179
 30
0.0
  0
VERTEX
  5
1BD
330
1AC
100
AcDbEntity
  8
_U+56FE_U+5C42 1
 62
   179
420
  2234388
370
    35
100
AcDbVertex
100
AcDb2dVertex
 10
82.45489355227386
 20
-87.22235708462179
 30
0.0
  0
SEQEND
  5
1BE
330
1AC
100
AcDbEntity
  8
_U+56FE_U+5C42 1
 62
   179
420
  2234388
370
    35
  0
ENDBLK
  5
198
330
195
100
AcDbEntity
  8
0
100
AcDbBlockEnd
  0
BLOCK
  5
1C4
330
1C2
100
AcDbEntity
  8
0
100
AcDbBlockBegin
  2
block 12
 70
     0
 10
0.0
 20
0.0
 30
0.0
  3
block 12
  1

  0
INSERT
  5
1C7
330
1C2
100
AcDbEntity
  8
_U+56FE_U+5C42 1
100
AcDbBlockReference
  2
block 13
 10
0.0
 20
0.0
 30
0.0
  0
ENDBLK
  5
1C5
330
1C2
100
AcDbEntity
  8
0
100
AcDbBlockEnd
  0
BLOCK
  5
1C8
330
1C6
100
AcDbEntity
  8
0
100
AcDbBlockBegin
  2
block 13
 70
     0
 10
0.0
 20
0.0
 30
0.0
  3
block 13
  1

  0
SPLINE
  5
1CA
330
1C6
100
AcDbEntity
  8
_U+56FE_U+5C42 1
 62
   179
420
  2234388
370
    35
100
AcDbSpline
210
0.0
220
0.0
230
1.0
 70
    11
 71
     3
 72
    29
 73
    25
 74
     0
 42
0.0000000001
 43
0.0000000001
 12
1.0
 22
0.0
 32
0.0
 13
1.0
 23
0.0
 33
0.0
 40
0.0
 40
0.0
 40
0.0
 40
0.0
 40
1.0
 40
1.0
 40
1.0
 40
2.0
 40
2.0
 40
2.0
 40
3.0
 40
3.0
 40
3.0
 40
4.0
 40
4.0
 40
4.0
 40
5.0
 40
5.0
 40
5.0
 40
6.0
 40
6.0
 40
6.0
 40
7.0
 40
7.0
 40
7.0
 40
8.0
 40
8.0
 40
8.0
 40
8.0
 10
109.7798612802904
 20
-49.25054480486354
 30
0.0
 10
109.7798612802904
 20
-49.25054480486354
 30
0.0
 10
109.779861281586
 20
-92.25196836404263
 30
0.0
 10
109.779861281586
 20
-92.25196836404263
 30
0.0
 10
109.7798612816194
 20
-93.35653675724149
 30
0.0
 10
108.8844316791921
 20
-94.25196636112801
 30
0.0
 10
107.7798632859932
 20
-94.25196636289462
 30
0.0
 10
107.7798632859932
 20
-94.25196636289462
 30
0.0
 10
107.7798592859706
 20
-94.25196636289462
 30
0.0
 10
107.7798592859706
 20
-94.25196636289462
 30
0.0
 10
106.6752908883235
 20
-94.25196636466121
 30
0.0
 10
105.779861280418
 20
-93.35653675815783
 30
0.0
 10
105.7798612804565
 20
-92.25196836051072
 30
0.0
 10
105.7798612804565
 20
-92.25196836051072
 30
0.0
 10
105.779861281926
 20
-49.25054480321149
 30
0.0
 10
105.779861281926
 20
-49.25054480321149
 30
0.0
 10
105.7798612819638
 20
-48.14597640614061
 30
0.0
 10
106.6752908914473
 20
-47.25054680121389
 30
0.0
 10
107.7798592885188
 20
-47.25054680679796
 30
0.0
 10
107.7798592885188
 20
-47.25054680679796
 30
0.0
 10
107.7798632922755
 20
-47.25054680679796
 30
0.0
 10
107.7798632922755
 20
-47.25054680679796
 30
0.0
 10
108.8844316823602
 20
-47.25054681238202
 30
0.0
 10
109.7798612802571
 20
-48.14597641477852
 30
0.0
 10
109.7798612802904
 20
-49.25054480486354
 30
0.0
  0
SPLINE
  5
1CB
330
1C6
100
AcDbEntity
  8
_U+56FE_U+5C42 1
 62
   179
420
  2234388
370
    35
100
AcDbSpline
210
0.0
220
0.0
230
1.0
 70
    11
 71
     3
 72
    17
 73
    13
 74
     0
 42
0.0000000001
 43
0.0000000001
 12
1.0
 22
0.0
 32
0.0
 13
1.0
 23
0.0
 33
0.0
 40
0.0
 40
0.0
 40
0.0
 40
0.0
 40
1.0
 40
1.0
 40
1.0
 40
2.0
 40
2.0
 40
2.0
 40
3.0
 40
3.0
 40
3.0
 40
4.0
 40
4.0
 40
4.0
 40
4.0
 10
108.279861301959
 20
-92.16505680360125
 30
0.0
 10
108.279861301959
 20
-92.44119917843298
 30
0.0
 10
108.0560036769149
 20
-92.6650568034771
 30
0.0
 10
107.7798613020831
 20
-92.6650568034771
 30
0.0
 10
107.5037189272527
 20
-92.6650568034771
 30
0.0
 10
107.2798613022085
 20
-92.44119917843298
 30
0.0
 10
107.2798613022085
 20
-92.16505680360125
 30
0.0
 10
107.2798613022085
 20
-91.88891442877079
 30
0.0
 10
107.5037189272527
 20
-91.66505680372669
 30
0.0
 10
107.7798613020831
 20
-91.66505680372669
 30
0.0
 10
108.0560036769149
 20
-91.66505680372669
 30
0.0
 10
108.279861301959
 20
-91.88891442877079
 30
0.0
 10
108.279861301959
 20
-92.16505680360125
 30
0.0
  0
ENDBLK
  5
1C9
330
1C6
100
AcDbEntity
  8
0
100
AcDbBlockEnd
  0
ENDSEC
  0
SECTION
  2
ENTITIES
  0
INSERT
  5
42
330
1F
100
AcDbEntity
  8
_U+56FE_U+5C42 1
100
AcDbBlockReference
  2
block 2
 10
0.0
 20
0.0
 30
0.0
  0
INSERT
  5
65
330
1F
100
AcDbEntity
  8
_U+56FE_U+5C42 1
100
AcDbBlockReference
  2
block 3
 10
0.0
 20
0.0
 30
0.0
  0
INSERT
  5
6A
330
1F
100
AcDbEntity
  8
_U+56FE_U+5C42 1
100
AcDbBlockReference
  2
block 4
 10
0.0
 20
0.0
 30
0.0
  0
SPLINE
  5
83
330
1F
100
AcDbEntity
  8
_U+56FE_U+5C42 1
 62
   179
420
  2234388
370
    35
100
AcDbSpline
210
0.0
220
0.0
230
1.0
 70
    11
 71
     3
 72
    32
 73
    28
 74
     0
 42
0.0000000001
 43
0.0000000001
 12
1.0
 22
0.0
 32
0.0
 13
1.0
 23
0.0
 33
0.0
 40
0.0
 40
0.0
 40
0.0
 40
0.0
 40
1.0
 40
1.0
 40
1.0
 40
2.0
 40
2.0
 40
2.0
 40
3.0
 40
3.0
 40
3.0
 40
4.0
 40
4.0
 40
4.0
 40
5.0
 40
5.0
 40
5.0
 40
6.0
 40
6.0
 40
6.0
 40
7.0
 40
7.0
 40
7.0
 40
8.0
 40
8.0
 40
8.0
 40
9.0
 40
9.0
 40
9.0
 40
9.0
 10
172.1363559040018
 20
-50.06466123680482
 30
0.0
 10
172.1363559040018
 20
-50.06466123680482
 30
0.0
 10
177.1808369682789
 20
-50.06466123680482
 30
0.0
 10
177.1808369682789
 20
-50.06466123680482
 30
0.0
 10
177.1808369682789
 20
-50.06466123680482
 30
0.0
 10
177.1808369682789
 20
-48.57485122605531
 30
0.0
 10
177.1808369682789
 20
-48.57485122605531
 30
0.0
 10
177.1808369682789
 20
-48.57485122605531
 30
0.0
 10
172.1808406994551
 20
-48.57485122605531
 30
0.0
 10
172.1808406994551
 20
-48.57485122605531
 30
0.0
 10
172.1808406994551
 20
-48.57485122605531
 30
0.0
 10
172.1808406994551
 20
-46.77485343055262
 30
0.0
 10
172.1808406994551
 20
-46.77485343055262
 30
0.0
 10
172.1808406994551
 20
-46.77485343055262
 30
0.0
 10
177.1808369682789
 20
-46.77485343055262
 30
0.0
 10
177.1808369682789
 20
-46.77485343055262
 30
0.0
 10
177.1808369682789
 20
-46.77485343055262
 30
0.0
 10
177.1808369682789
 20
-30.06465462966289
 30
0.0
 10
177.1808369682789
 20
-30.06465462966289
 30
0.0
 10
177.1808369682789
 20
-30.06465462966289
 30
0.0
 10
152.1363708287067
 20
-30.06465462966289
 30
0.0
 10
152.1363708287067
 20
-30.06465462966289
 30
0.0
 10
152.1363708287067
 20
-30.06465462966289
 30
0.0
 10
152.1363708287067
 20
-30.06467616150968
 30
0.0
 10
152.1363708287067
 20
-30.06467616150968
 30
0.0
 10
152.1363708287067
 20
-41.11036283816449
 30
0.0
 10
161.090669227347
 20
-50.06466123680482
 30
0.0
 10
172.1363559040018
 20
-50.06466123680482
 30
0.0
  0
SPLINE
  5
84
330
1F
100
AcDbEntity
  8
_U+56FE_U+5C42 1
 62
   179
420
  2234388
370
    35
100
AcDbSpline
210
0.0
220
0.0
230
1.0
 70
    11
 71
     3
 72
    32
 73
    28
 74
     0
 42
0.0000000001
 43
0.0000000001
 12
1.0
 22
0.0
 32
0.0
 13
1.0
 23
0.0
 33
0.0
 40
0.0
 40
0.0
 40
0.0
 40
0.0
 40
1.0
 40
1.0
 40
1.0
 40
2.0
 40
2.0
 40
2.0
 40
3.0
 40
3.0
 40
3.0
 40
4.0
 40
4.0
 40
4.0
 40
5.0
 40
5.0
 40
5.0
 40
6.0
 40
6.0
 40
6.0
 40
7.0
 40
7.0
 40
7.0
 40
8.0
 40
8.0
 40
8.0
 40
9.0
 40
9.0
 40
9.0
 40
9.0
 10
157.1808518929838
 20
-7.947981356383468
 30
0.0
 10
157.1808518929838
 20
-7.947981356383468
 30
0.0
 10
152.1363708287067
 20
-7.947981356383468
 30
0.0
 10
152.1363708287067
 20
-7.947981356383468
 30
0.0
 10
152.1363708287067
 20
-7.947981356383468
 30
0.0
 10
152.1363708287067
 20
-9.437791367132977
 30
0.0
 10
152.1363708287067
 20
-9.437791367132977
 30
0.0
 10
152.1363708287067
 20
-9.437791367132977
 30
0.0
 10
157.1363670975305
 20
-9.437791367132977
 30
0.0
 10
157.1363670975305
 20
-9.437791367132977
 30
0.0
 10
157.1363670975305
 20
-9.437791367132977
 30
0.0
 10
157.1363670975305
 20
-11.23778916263567
 30
0.0
 10
157.1363670975305
 20
-11.23778916263567
 30
0.0
 10
157.1363670975305
 20
-11.23778916263567
 30
0.0
 10
152.1363708287067
 20
-11.23778916263567
 30
0.0
 10
152.1363708287067
 20
-11.23778916263567
 30
0.0
 10
152.1363708287067
 20
-11.23778916263567
 30
0.0
 10
152.1363708287067
 20
-27.9479879635254
 30
0.0
 10
152.1363708287067
 20
-27.9479879635254
 30
0.0
 10
152.1363708287067
 20
-27.9479879635254
 30
0.0
 10
177.1808369682789
 20
-27.9479879635254
 30
0.0
 10
177.1808369682789
 20
-27.9479879635254
 30
0.0
 10
177.1808369682789
 20
-27.9479879635254
 30
0.0
 10
177.1808369682789
 20
-27.94796643167861
 30
0.0
 10
177.1808369682789
 20
-27.94796643167861
 30
0.0
 10
177.1808369682789
 20
-16.9022797550238
 30
0.0
 10
168.2265385696386
 20
-7.947981356383468
 30
0.0
 10
157.1808518929838
 20
-7.947981356383468
 30
0.0
  0
SPLINE
  5
85
330
1F
100
AcDbEntity
  8
_U+56FE_U+5C42 1
 62
   179
420
  2234388
370
    35
100
AcDbSpline
210
0.0
220
0.0
230
1.0
 70
    11
 71
     3
 72
    32
 73
    28
 74
     0
 42
0.0000000001
 43
0.0000000001
 12
1.0
 22
0.0
 32
0.0
 13
1.0
 23
0.0
 33
0.0
 40
0.0
 40
0.0
 40
0.0
 40
0.0
 40
1.0
 40
1.0
 40
1.0
 40
2.0
 40
2.0
 40
2.0
 40
3.0
 40
3.0
 40
3.0
 40
4.0
 40
4.0
 40
4.0
 40
5.0
 40
5.0
 40
5.0
 40
6.0
 40
6.0
 40
6.0
 40
7.0
 40
7.0
 40
7.0
 40
8.0
 40
8.0
 40
8.0
 40
9.0
 40
9.0
 40
9.0
 40
9.0
 10
145.6807786536713
 20
-50.06466123680482
 30
0.0
 10
145.6807786536713
 20
-50.06466123680482
 30
0.0
 10
150.7252597179484
 20
-50.06466123680482
 30
0.0
 10
150.7252597179484
 20
-50.06466123680482
 30
0.0
 10
150.7252597179484
 20
-50.06466123680482
 30
0.0
 10
150.7252597179484
 20
-48.57485122605531
 30
0.0
 10
150.7252597179484
 20
-48.57485122605531
 30
0.0
 10
150.7252597179484
 20
-48.57485122605531
 30
0.0
 10
145.7252634491246
 20
-48.57485122605531
 30
0.0
 10
145.7252634491246
 20
-48.57485122605531
 30
0.0
 10
145.7252634491246
 20
-48.57485122605531
 30
0.0
 10
145.7252634491246
 20
-46.77485343055262
 30
0.0
 10
145.7252634491246
 20
-46.77485343055262
 30
0.0
 10
145.7252634491246
 20
-46.77485343055262
 30
0.0
 10
150.7252597179484
 20
-46.77485343055262
 30
0.0
 10
150.7252597179484
 20
-46.77485343055262
 30
0.0
 10
150.7252597179484
 20
-46.77485343055262
 30
0.0
 10
150.7252597179484
 20
-30.06465462966289
 30
0.0
 10
150.7252597179484
 20
-30.06465462966289
 30
0.0
 10
150.7252597179484
 20
-30.06465462966289
 30
0.0
 10
125.6807935783762
 20
-30.06465462966289
 30
0.0
 10
125.6807935783762
 20
-30.06465462966289
 30
0.0
 10
125.6807935783762
 20
-30.06465462966289
 30
0.0
 10
125.6807935783762
 20
-30.06467616150968
 30
0.0
 10
125.6807935783762
 20
-30.06467616150968
 30
0.0
 10
125.6807935783762
 20
-41.11036283816449
 30
0.0
 10
134.6350919770165
 20
-50.06466123680482
 30
0.0
 10
145.6807786536713
 20
-50.06466123680482
 30
0.0
  0
SPLINE
  5
86
330
1F
100
AcDbEntity
  8
_U+56FE_U+5C42 1
 62
   179
420
  2234388
370
    35
100
AcDbSpline
210
0.0
220
0.0
230
1.0
 70
    11
 71
     3
 72
    32
 73
    28
 74
     0
 42
0.0000000001
 43
0.0000000001
 12
1.0
 22
0.0
 32
0.0
 13
1.0
 23
0.0
 33
0.0
 40
0.0
 40
0.0
 40
0.0
 40
0.0
 40
1.0
 40
1.0
 40
1.0
 40
2.0
 40
2.0
 40
2.0
 40
3.0
 40
3.0
 40
3.0
 40
4.0
 40
4.0
 40
4.0
 40
5.0
 40
5.0
 40
5.0
 40
6.0
 40
6.0
 40
6.0
 40
7.0
 40
7.0
 40
7.0
 40
8.0
 40
8.0
 40
8.0
 40
9.0
 40
9.0
 40
9.0
 40
9.0
 10
130.7252746426532
 20
-7.947981356383468
 30
0.0
 10
130.7252746426532
 20
-7.947981356383468
 30
0.0
 10
125.6807935783762
 20
-7.947981356383468
 30
0.0
 10
125.6807935783762
 20
-7.947981356383468
 30
0.0
 10
125.6807935783762
 20
-7.947981356383468
 30
0.0
 10
125.6807935783762
 20
-9.437791367132977
 30
0.0
 10
125.6807935783762
 20
-9.437791367132977
 30
0.0
 10
125.6807935783762
 20
-9.437791367132977
 30
0.0
 10
130.6807898471999
 20
-9.437791367132977
 30
0.0
 10
130.6807898471999
 20
-9.437791367132977
 30
0.0
 10
130.6807898471999
 20
-9.437791367132977
 30
0.0
 10
130.6807898471999
 20
-11.23778916263567
 30
0.0
 10
130.6807898471999
 20
-11.23778916263567
 30
0.0
 10
130.6807898471999
 20
-11.23778916263567
 30
0.0
 10
125.6807935783762
 20
-11.23778916263567
 30
0.0
 10
125.6807935783762
 20
-11.23778916263567
 30
0.0
 10
125.6807935783762
 20
-11.23778916263567
 30
0.0
 10
125.6807935783762
 20
-27.9479879635254
 30
0.0
 10
125.6807935783762
 20
-27.9479879635254
 30
0.0
 10
125.6807935783762
 20
-27.9479879635254
 30
0.0
 10
150.7252597179484
 20
-27.9479879635254
 30
0.0
 10
150.7252597179484
 20
-27.9479879635254
 30
0.0
 10
150.7252597179484
 20
-27.9479879635254
 30
0.0
 10
150.7252597179484
 20
-27.94796643167861
 30
0.0
 10
150.7252597179484
 20
-27.94796643167861
 30
0.0
 10
150.7252597179484
 20
-16.9022797550238
 30
0.0
 10
141.770961319308
 20
-7.947981356383468
 30
0.0
 10
130.7252746426532
 20
-7.947981356383468
 30
0.0
  0
INSERT
  5
88
330
1F
100
AcDbEntity
  8
_U+56FE_U+5C42 1
100
AcDbBlockReference
  2
block 5
 10
0.0
 20
0.0
 30
0.0
  0
INSERT
  5
E3
330
1F
100
AcDbEntity
  8
_U+56FE_U+5C42 1
100
AcDbBlockReference
  2
block 6
 10
0.0
 20
0.0
 30
0.0
  0
INSERT
  5
10D
330
1F
100
AcDbEntity
  8
_U+56FE_U+5C42 1
100
AcDbBlockReference
  2
block 7
 10
0.0
 20
0.0
 30
0.0
  0
INSERT
  5
12F
330
1F
100
AcDbEntity
  8
_U+56FE_U+5C42 1
100
AcDbBlockReference
  2
block 8
 10
0.0
 20
0.0
 30
0.0
  0
INSERT
  5
139
330
1F
100
AcDbEntity
  8
_U+56FE_U+5C42 1
100
AcDbBlockReference
  2
block 10
 10
0.0
 20
0.0
 30
0.0
  0
POLYLINE
  5
13E
330
1F
100
AcDbEntity
  8
_U+56FE_U+5C42 1
 62
   179
420
  2234388
370
    35
100
AcDb2dPolyline
 66
     1
 10
0.0
 20
0.0
 30
0.0
  0
VERTEX
  5
13F
330
13E
100
AcDbEntity
  8
_U+56FE_U+5C42 1
 62
   179
420
  2234388
370
    35
100
AcDbVertex
100
AcDb2dVertex
 10
49.08519161348904
 20
-91.57511680507766
 30
0.0
  0
VERTEX
  5
140
330
13E
100
AcDbEntity
  8
_U+56FE_U+5C42 1
 62
   179
420
  2234388
370
    35
100
AcDbVertex
100
AcDb2dVertex
 10
49.08519161348904
 20
-84.26968416937146
 30
0.0
  0
VERTEX
  5
141
330
13E
100
AcDbEntity
  8
_U+56FE_U+5C42 1
 62
   179
420
  2234388
370
    35
100
AcDbVertex
100
AcDb2dVertex
 10
48.1852034816614
 20
-84.26968416937146
 30
0.0
  0
VERTEX
  5
142
330
13E
100
AcDbEntity
  8
_U+56FE_U+5C42 1
 62
   179
420
  2234388
370
    35
100
AcDbVertex
100
AcDb2dVertex
 10
48.1852034816614
 20
-82.46968637386877
 30
0.0
  0
VERTEX
  5
143
330
13E
100
AcDbEntity
  8
_U+56FE_U+5C42 1
 62
   179
420
  2234388
370
    35
100
AcDbVertex
100
AcDb2dVertex
 10
49.08519161348904
 20
-82.46968637386877
 30
0.0
  0
VERTEX
  5
144
330
13E
100
AcDbEntity
  8
_U+56FE_U+5C42 1
 62
   179
420
  2234388
370
    35
100
AcDbVertex
100
AcDb2dVertex
 10
49.08519161348904
 20
-79.11429256231612
 30
0.0
  0
VERTEX
  5
145
330
13E
100
AcDbEntity
  8
_U+56FE_U+5C42 1
 62
   179
420
  2234388
370
    35
100
AcDbVertex
100
AcDb2dVertex
 10
48.1852034816614
 20
-79.11429256231612
 30
0.0
  0
VERTEX
  5
146
330
13E
100
AcDbEntity
  8
_U+56FE_U+5C42 1
 62
   179
420
  2234388
370
    35
100
AcDbVertex
100
AcDb2dVertex
 10
48.1852034816614
 20
-77.31429476681343
 30
0.0
  0
VERTEX
  5
147
330
13E
100
AcDbEntity
  8
_U+56FE_U+5C42 1
 62
   179
420
  2234388
370
    35
100
AcDbVertex
100
AcDb2dVertex
 10
49.08519161348904
 20
-77.31429476681343
 30
0.0
  0
VERTEX
  5
148
330
13E
100
AcDbEntity
  8
_U+56FE_U+5C42 1
 62
   179
420
  2234388
370
    35
100
AcDbVertex
100
AcDb2dVertex
 10
49.08519161348904
 20
-72.86956176282479
 30
0.0
  0
VERTEX
  5
149
330
13E
100
AcDbEntity
  8
_U+56FE_U+5C42 1
 62
   179
420
  2234388
370
    35
100
AcDbVertex
100
AcDb2dVertex
 10
45.08519890479937
 20
-72.86956176282479
 30
0.0
  0
VERTEX
  5
14A
330
13E
100
AcDbEntity
  8
_U+56FE_U+5C42 1
 62
   179
420
  2234388
370
    35
100
AcDbVertex
100
AcDb2dVertex
 10
45.08519890479937
 20
-77.31429476681343
 30
0.0
  0
VERTEX
  5
14B
330
13E
100
AcDbEntity
  8
_U+56FE_U+5C42 1
 62
   179
420
  2234388
370
    35
100
AcDbVertex
100
AcDb2dVertex
 10
45.98518703662732
 20
-77.31429476681343
 30
0.0
  0
VERTEX
  5
14C
330
13E
100
AcDbEntity
  8
_U+56FE_U+5C42 1
 62
   179
420
  2234388
370
    35
100
AcDbVertex
100
AcDb2dVertex
 10
45.98518703662732
 20
-79.11429256231612
 30
0.0
  0
VERTEX
  5
14D
330
13E
100
AcDbEntity
  8
_U+56FE_U+5C42 1
 62
   179
420
  2234388
370
    35
100
AcDbVertex
100
AcDb2dVertex
 10
45.08519890479937
 20
-79.11429256231612
 30
0.0
  0
VERTEX
  5
14E
330
13E
100
AcDbEntity
  8
_U+56FE_U+5C42 1
 62
   179
420
  2234388
370
    35
100
AcDbVertex
100
AcDb2dVertex
 10
45.08519890479937
 20
-82.46968637386877
 30
0.0
  0
VERTEX
  5
14F
330
13E
100
AcDbEntity
  8
_U+56FE_U+5C42 1
 62
   179
420
  2234388
370
    35
100
AcDbVertex
100
AcDb2dVertex
 10
45.98518703662732
 20
-82.46968637386877
 30
0.0
  0
VERTEX
  5
150
330
13E
100
AcDbEntity
  8
_U+56FE_U+5C42 1
 62
   179
420
  2234388
370
    35
100
AcDbVertex
100
AcDb2dVertex
 10
45.98518703662732
 20
-84.26968416937146
 30
0.0
  0
VERTEX
  5
151
330
13E
100
AcDbEntity
  8
_U+56FE_U+5C42 1
 62
   179
420
  2234388
370
    35
100
AcDbVertex
100
AcDb2dVertex
 10
45.08519890479937
 20
-84.26968416937146
 30
0.0
  0
VERTEX
  5
152
330
13E
100
AcDbEntity
  8
_U+56FE_U+5C42 1
 62
   179
420
  2234388
370
    35
100
AcDbVertex
100
AcDb2dVertex
 10
45.08519890479937
 20
-91.57511680507766
 30
0.0
  0
VERTEX
  5
153
330
13E
100
AcDbEntity
  8
_U+56FE_U+5C42 1
 62
   179
420
  2234388
370
    35
100
AcDbVertex
100
AcDb2dVertex
 10
44.58518635880892
 20
-91.57511680507766
 30
0.0
  0
VERTEX
  5
154
330
13E
100
AcDbEntity
  8
_U+56FE_U+5C42 1
 62
   179
420
  2234388
370
    35
100
AcDbVertex
100
AcDb2dVertex
 10
44.58518635880892
 20
-93.57512392534588
 30
0.0
  0
VERTEX
  5
155
330
13E
100
AcDbEntity
  8
_U+56FE_U+5C42 1
 62
   179
420
  2234388
370
    35
100
AcDbVertex
100
AcDb2dVertex
 10
45.08519890479937
 20
-93.57512392534588
 30
0.0
  0
VERTEX
  5
156
330
13E
100
AcDbEntity
  8
_U+56FE_U+5C42 1
 62
   179
420
  2234388
370
    35
100
AcDbVertex
100
AcDb2dVertex
 10
49.08519161348904
 20
-93.57512392534588
 30
0.0
  0
VERTEX
  5
157
330
13E
100
AcDbEntity
  8
_U+56FE_U+5C42 1
 62
   179
420
  2234388
370
    35
100
AcDbVertex
100
AcDb2dVertex
 10
49.58520415947981
 20
-93.57512392534588
 30
0.0
  0
VERTEX
  5
158
330
13E
100
AcDbEntity
  8
_U+56FE_U+5C42 1
 62
   179
420
  2234388
370
    35
100
AcDbVertex
100
AcDb2dVertex
 10
49.58520415947981
 20
-91.57511680507766
 30
0.0
  0
VERTEX
  5
159
330
13E
100
AcDbEntity
  8
_U+56FE_U+5C42 1
 62
   179
420
  2234388
370
    35
100
AcDbVertex
100
AcDb2dVertex
 10
49.08519161348904
 20
-91.57511680507766
 30
0.0
  0
SEQEND
  5
15A
330
13E
100
AcDbEntity
  8
_U+56FE_U+5C42 1
 62
   179
420
  2234388
370
    35
  0
POLYLINE
  5
15B
330
1F
100
AcDbEntity
  8
_U+56FE_U+5C42 1
 62
   179
420
  2234388
370
    35
100
AcDb2dPolyline
 66
     1
 10
0.0
 20
0.0
 30
0.0
  0
VERTEX
  5
15C
330
15B
100
AcDbEntity
  8
_U+56FE_U+5C42 1
 62
   179
420
  2234388
370
    35
100
AcDbVertex
100
AcDb2dVertex
 10
42.85275969476295
 20
-91.57511680507766
 30
0.0
  0
VERTEX
  5
15D
330
15B
100
AcDbEntity
  8
_U+56FE_U+5C42 1
 62
   179
420
  2234388
370
    35
100
AcDbVertex
100
AcDb2dVertex
 10
42.85275969476295
 20
-84.26968416937146
 30
0.0
  0
VERTEX
  5
15E
330
15B
100
AcDbEntity
  8
_U+56FE_U+5C42 1
 62
   179
420
  2234388
370
    35
100
AcDbVertex
100
AcDb2dVertex
 10
41.952771562935
 20
-84.26968416937146
 30
0.0
  0
VERTEX
  5
15F
330
15B
100
AcDbEntity
  8
_U+56FE_U+5C42 1
 62
   179
420
  2234388
370
    35
100
AcDbVertex
100
AcDb2dVertex
 10
41.952771562935
 20
-82.46968637386877
 30
0.0
  0
VERTEX
  5
160
330
15B
100
AcDbEntity
  8
_U+56FE_U+5C42 1
 62
   179
420
  2234388
370
    35
100
AcDbVertex
100
AcDb2dVertex
 10
42.85275969476295
 20
-82.46968637386877
 30
0.0
  0
VERTEX
  5
161
330
15B
100
AcDbEntity
  8
_U+56FE_U+5C42 1
 62
   179
420
  2234388
370
    35
100
AcDbVertex
100
AcDb2dVertex
 10
42.85275969476295
 20
-79.11429256231612
 30
0.0
  0
VERTEX
  5
162
330
15B
100
AcDbEntity
  8
_U+56FE_U+5C42 1
 62
   179
420
  2234388
370
    35
100
AcDbVertex
100
AcDb2dVertex
 10
41.952771562935
 20
-79.11429256231612
 30
0.0
  0
VERTEX
  5
163
330
15B
100
AcDbEntity
  8
_U+56FE_U+5C42 1
 62
   179
420
  2234388
370
    35
100
AcDbVertex
100
AcDb2dVertex
 10
41.952771562935
 20
-77.31429476681343
 30
0.0
  0
VERTEX
  5
164
330
15B
100
AcDbEntity
  8
_U+56FE_U+5C42 1
 62
   179
420
  2234388
370
    35
100
AcDbVertex
100
AcDb2dVertex
 10
42.85275969476295
 20
-77.31429476681343
 30
0.0
  0
VERTEX
  5
165
330
15B
100
AcDbEntity
  8
_U+56FE_U+5C42 1
 62
   179
420
  2234388
370
    35
100
AcDbVertex
100
AcDb2dVertex
 10
42.85275969476295
 20
-72.86956176282479
 30
0.0
  0
VERTEX
  5
166
330
15B
100
AcDbEntity
  8
_U+56FE_U+5C42 1
 62
   179
420
  2234388
370
    35
100
AcDbVertex
100
AcDb2dVertex
 10
38.85276698607328
 20
-72.86956176282479
 30
0.0
  0
VERTEX
  5
167
330
15B
100
AcDbEntity
  8
_U+56FE_U+5C42 1
 62
   179
420
  2234388
370
    35
100
AcDbVertex
100
AcDb2dVertex
 10
38.85276698607328
 20
-77.31429476681343
 30
0.0
  0
VERTEX
  5
168
330
15B
100
AcDbEntity
  8
_U+56FE_U+5C42 1
 62
   179
420
  2234388
370
    35
100
AcDbVertex
100
AcDb2dVertex
 10
39.75275511790123
 20
-77.31429476681343
 30
0.0
  0
VERTEX
  5
169
330
15B
100
AcDbEntity
  8
_U+56FE_U+5C42 1
 62
   179
420
  2234388
370
    35
100
AcDbVertex
100
AcDb2dVertex
 10
39.75275511790123
 20
-79.11429256231612
 30
0.0
  0
VERTEX
  5
16A
330
15B
100
AcDbEntity
  8
_U+56FE_U+5C42 1
 62
   179
420
  2234388
370
    35
100
AcDbVertex
100
AcDb2dVertex
 10
38.85276698607328
 20
-79.11429256231612
 30
0.0
  0
VERTEX
  5
16B
330
15B
100
AcDbEntity
  8
_U+56FE_U+5C42 1
 62
   179
420
  2234388
370
    35
100
AcDbVertex
100
AcDb2dVertex
 10
38.85276698607328
 20
-82.46968637386877
 30
0.0
  0
VERTEX
  5
16C
330
15B
100
AcDbEntity
  8
_U+56FE_U+5C42 1
 62
   179
420
  2234388
370
    35
100
AcDbVertex
100
AcDb2dVertex
 10
39.75275511790123
 20
-82.46968637386877
 30
0.0
  0
VERTEX
  5
16D
330
15B
100
AcDbEntity
  8
_U+56FE_U+5C42 1
 62
   179
420
  2234388
370
    35
100
AcDbVertex
100
AcDb2dVertex
 10
39.75275511790123
 20
-84.26968416937146
 30
0.0
  0
VERTEX
  5
16E
330
15B
100
AcDbEntity
  8
_U+56FE_U+5C42 1
 62
   179
420
  2234388
370
    35
100
AcDbVertex
100
AcDb2dVertex
 10
38.85276698607328
 20
-84.26968416937146
 30
0.0
  0
VERTEX
  5
16F
330
15B
100
AcDbEntity
  8
_U+56FE_U+5C42 1
 62
   179
420
  2234388
370
    35
100
AcDbVertex
100
AcDb2dVertex
 10
38.85276698607328
 20
-91.57511680507766
 30
0.0
  0
VERTEX
  5
170
330
15B
100
AcDbEntity
  8
_U+56FE_U+5C42 1
 62
   179
420
  2234388
370
    35
100
AcDbVertex
100
AcDb2dVertex
 10
38.35275444008283
 20
-91.57511680507766
 30
0.0
  0
VERTEX
  5
171
330
15B
100
AcDbEntity
  8
_U+56FE_U+5C42 1
 62
   179
420
  2234388
370
    35
100
AcDbVertex
100
AcDb2dVertex
 10
38.35275444008283
 20
-93.57512392534588
 30
0.0
  0
VERTEX
  5
172
330
15B
100
AcDbEntity
  8
_U+56FE_U+5C42 1
 62
   179
420
  2234388
370
    35
100
AcDbVertex
100
AcDb2dVertex
 10
38.85276698607328
 20
-93.57512392534588
 30
0.0
  0
VERTEX
  5
173
330
15B
100
AcDbEntity
  8
_U+56FE_U+5C42 1
 62
   179
420
  2234388
370
    35
100
AcDbVertex
100
AcDb2dVertex
 10
42.85275969476295
 20
-93.57512392534588
 30
0.0
  0
VERTEX
  5
174
330
15B
100
AcDbEntity
  8
_U+56FE_U+5C42 1
 62
   179
420
  2234388
370
    35
100
AcDbVertex
100
AcDb2dVertex
 10
43.3527722407534
 20
-93.57512392534588
 30
0.0
  0
VERTEX
  5
175
330
15B
100
AcDbEntity
  8
_U+56FE_U+5C42 1
 62
   179
420
  2234388
370
    35
100
AcDbVertex
100
AcDb2dVertex
 10
43.3527722407534
 20
-91.57511680507766
 30
0.0
  0
VERTEX
  5
176
330
15B
100
AcDbEntity
  8
_U+56FE_U+5C42 1
 62
   179
420
  2234388
370
    35
100
AcDbVertex
100
AcDb2dVertex
 10
42.85275969476295
 20
-91.57511680507766
 30
0.0
  0
SEQEND
  5
177
330
15B
100
AcDbEntity
  8
_U+56FE_U+5C42 1
 62
   179
420
  2234388
370
    35
  0
POLYLINE
  5
178
330
1F
100
AcDbEntity
  8
_U+56FE_U+5C42 1
 62
   179
420
  2234388
370
    35
100
AcDb2dPolyline
 66
     1
 10
0.0
 20
0.0
 30
0.0
  0
VERTEX
  5
179
330
178
100
AcDbEntity
  8
_U+56FE_U+5C42 1
 62
   179
420
  2234388
370
    35
100
AcDbVertex
100
AcDb2dVertex
 10
55.56719829949922
 20
-91.57511680507766
 30
0.0
  0
VERTEX
  5
17A
330
178
100
AcDbEntity
  8
_U+56FE_U+5C42 1
 62
   179
420
  2234388
370
    35
100
AcDbVertex
100
AcDb2dVertex
 10
55.56719829949922
 20
-84.26968416937146
 30
0.0
  0
VERTEX
  5
17B
330
178
100
AcDbEntity
  8
_U+56FE_U+5C42 1
 62
   179
420
  2234388
370
    35
100
AcDbVertex
100
AcDb2dVertex
 10
54.66721016767126
 20
-84.26968416937146
 30
0.0
  0
VERTEX
  5
17C
330
178
100
AcDbEntity
  8
_U+56FE_U+5C42 1
 62
   179
420
  2234388
370
    35
100
AcDbVertex
100
AcDb2dVertex
 10
54.66721016767126
 20
-82.46968637386877
 30
0.0
  0
VERTEX
  5
17D
330
178
100
AcDbEntity
  8
_U+56FE_U+5C42 1
 62
   179
420
  2234388
370
    35
100
AcDbVertex
100
AcDb2dVertex
 10
55.56719829949922
 20
-82.46968637386877
 30
0.0
  0
VERTEX
  5
17E
330
178
100
AcDbEntity
  8
_U+56FE_U+5C42 1
 62
   179
420
  2234388
370
    35
100
AcDbVertex
100
AcDb2dVertex
 10
55.56719829949922
 20
-79.11429256231612
 30
0.0
  0
VERTEX
  5
17F
330
178
100
AcDbEntity
  8
_U+56FE_U+5C42 1
 62
   179
420
  2234388
370
    35
100
AcDbVertex
100
AcDb2dVertex
 10
54.66721016767126
 20
-79.11429256231612
 30
0.0
  0
VERTEX
  5
180
330
178
100
AcDbEntity
  8
_U+56FE_U+5C42 1
 62
   179
420
  2234388
370
    35
100
AcDbVertex
100
AcDb2dVertex
 10
54.66721016767126
 20
-77.31429476681343
 30
0.0
  0
VERTEX
  5
181
330
178
100
AcDbEntity
  8
_U+56FE_U+5C42 1
 62
   179
420
  2234388
370
    35
100
AcDbVertex
100
AcDb2dVertex
 10
55.56719829949922
 20
-77.31429476681343
 30
0.0
  0
VERTEX
  5
182
330
178
100
AcDbEntity
  8
_U+56FE_U+5C42 1
 62
   179
420
  2234388
370
    35
100
AcDbVertex
100
AcDb2dVertex
 10
55.56719829949922
 20
-72.86956176282479
 30
0.0
  0
VERTEX
  5
183
330
178
100
AcDbEntity
  8
_U+56FE_U+5C42 1
 62
   179
420
  2234388
370
    35
100
AcDbVertex
100
AcDb2dVertex
 10
51.56720559080955
 20
-72.86956176282479
 30
0.0
  0
VERTEX
  5
184
330
178
100
AcDbEntity
  8
_U+56FE_U+5C42 1
 62
   179
420
  2234388
370
    35
100
AcDbVertex
100
AcDb2dVertex
 10
51.56720559080955
 20
-77.31429476681343
 30
0.0
  0
VERTEX
  5
185
330
178
100
AcDbEntity
  8
_U+56FE_U+5C42 1
 62
   179
420
  2234388
370
    35
100
AcDbVertex
100
AcDb2dVertex
 10
52.4671937226375
 20
-77.31429476681343
 30
0.0
  0
VERTEX
  5
186
330
178
100
AcDbEntity
  8
_U+56FE_U+5C42 1
 62
   179
420
  2234388
370
    35
100
AcDbVertex
100
AcDb2dVertex
 10
52.4671937226375
 20
-79.11429256231612
 30
0.0
  0
VERTEX
  5
187
330
178
100
AcDbEntity
  8
_U+56FE_U+5C42 1
 62
   179
420
  2234388
370
    35
100
AcDbVertex
100
AcDb2dVertex
 10
51.56720559080955
 20
-79.11429256231612
 30
0.0
  0
VERTEX
  5
188
330
178
100
AcDbEntity
  8
_U+56FE_U+5C42 1
 62
   179
420
  2234388
370
    35
100
AcDbVertex
100
AcDb2dVertex
 10
51.56720559080955
 20
-82.46968637386877
 30
0.0
  0
VERTEX
  5
189
330
178
100
AcDbEntity
  8
_U+56FE_U+5C42 1
 62
   179
420
  2234388
370
    35
100
AcDbVertex
100
AcDb2dVertex
 10
52.4671937226375
 20
-82.46968637386877
 30
0.0
  0
VERTEX
  5
18A
330
178
100
AcDbEntity
  8
_U+56FE_U+5C42 1
 62
   179
420
  2234388
370
    35
100
AcDbVertex
100
AcDb2dVertex
 10
52.4671937226375
 20
-84.26968416937146
 30
0.0
  0
VERTEX
  5
18B
330
178
100
AcDbEntity
  8
_U+56FE_U+5C42 1
 62
   179
420
  2234388
370
    35
100
AcDbVertex
100
AcDb2dVertex
 10
51.56720559080955
 20
-84.26968416937146
 30
0.0
  0
VERTEX
  5
18C
330
178
100
AcDbEntity
  8
_U+56FE_U+5C42 1
 62
   179
420
  2234388
370
    35
100
AcDbVertex
100
AcDb2dVertex
 10
51.56720559080955
 20
-91.57511680507766
 30
0.0
  0
VERTEX
  5
18D
330
178
100
AcDbEntity
  8
_U+56FE_U+5C42 1
 62
   179
420
  2234388
370
    35
100
AcDbVertex
100
AcDb2dVertex
 10
51.0671930448191
 20
-91.57511680507766
 30
0.0
  0
VERTEX
  5
18E
330
178
100
AcDbEntity
  8
_U+56FE_U+5C42 1
 62
   179
420
  2234388
370
    35
100
AcDbVertex
100
AcDb2dVertex
 10
51.0671930448191
 20
-93.57512392534588
 30
0.0
  0
VERTEX
  5
18F
330
178
100
AcDbEntity
  8
_U+56FE_U+5C42 1
 62
   179
420
  2234388
370
    35
100
AcDbVertex
100
AcDb2dVertex
 10
51.56720559080955
 20
-93.57512392534588
 30
0.0
  0
VERTEX
  5
190
330
178
100
AcDbEntity
  8
_U+56FE_U+5C42 1
 62
   179
420
  2234388
370
    35
100
AcDbVertex
100
AcDb2dVertex
 10
55.56719829949922
 20
-93.57512392534588
 30
0.0
  0
VERTEX
  5
191
330
178
100
AcDbEntity
  8
_U+56FE_U+5C42 1
 62
   179
420
  2234388
370
    35
100
AcDbVertex
100
AcDb2dVertex
 10
56.06721084548967
 20
-93.57512392534588
 30
0.0
  0
VERTEX
  5
192
330
178
100
AcDbEntity
  8
_U+56FE_U+5C42 1
 62
   179
420
  2234388
370
    35
100
AcDbVertex
100
AcDb2dVertex
 10
56.06721084548967
 20
-91.57511680507766
 30
0.0
  0
VERTEX
  5
193
330
178
100
AcDbEntity
  8
_U+56FE_U+5C42 1
 62
   179
420
  2234388
370
    35
100
AcDbVertex
100
AcDb2dVertex
 10
55.56719829949922
 20
-91.57511680507766
 30
0.0
  0
SEQEND
  5
194
330
178
100
AcDbEntity
  8
_U+56FE_U+5C42 1
 62
   179
420
  2234388
370
    35
  0
INSERT
  5
196
330
1F
100
AcDbEntity
  8
_U+56FE_U+5C42 1
100
AcDbBlockReference
  2
block 11
 10
0.0
 20
0.0
 30
0.0
  0
SPLINE
  5
1BF
330
1F
100
AcDbEntity
  8
_U+56FE_U+5C42 1
 62
   179
420
  2234388
370
    35
100
AcDbSpline
210
0.0
220
0.0
230
1.0
 70
    11
 71
     3
 72
    32
 73
    28
 74
     0
 42
0.0000000001
 43
0.0000000001
 12
1.0
 22
0.0
 32
0.0
 13
1.0
 23
0.0
 33
0.0
 40
0.0
 40
0.0
 40
0.0
 40
0.0
 40
1.0
 40
1.0
 40
1.0
 40
2.0
 40
2.0
 40
2.0
 40
3.0
 40
3.0
 40
3.0
 40
4.0
 40
4.0
 40
4.0
 40
5.0
 40
5.0
 40
5.0
 40
6.0
 40
6.0
 40
6.0
 40
7.0
 40
7.0
 40
7.0
 40
8.0
 40
8.0
 40
8.0
 40
9.0
 40
9.0
 40
9.0
 40
9.0
 10
119.0587602403909
 20
-27.9479879635254
 30
0.0
 10
119.0587602403909
 20
-27.9479879635254
 30
0.0
 10
124.1032413046679
 20
-27.9479879635254
 30
0.0
 10
124.1032413046679
 20
-27.9479879635254
 30
0.0
 10
124.1032413046679
 20
-27.9479879635254
 30
0.0
 10
124.1032413046679
 20
-26.45817795277588
 30
0.0
 10
124.1032413046679
 20
-26.45817795277588
 30
0.0
 10
124.1032413046679
 20
-26.45817795277588
 30
0.0
 10
119.1032450358442
 20
-26.45817795277588
 30
0.0
 10
119.1032450358442
 20
-26.45817795277588
 30
0.0
 10
119.1032450358442
 20
-26.45817795277588
 30
0.0
 10
119.1032450358442
 20
-24.65818015727319
 30
0.0
 10
119.1032450358442
 20
-24.65818015727319
 30
0.0
 10
119.1032450358442
 20
-24.65818015727319
 30
0.0
 10
124.1032413046679
 20
-24.65818015727319
 30
0.0
 10
124.1032413046679
 20
-24.65818015727319
 30
0.0
 10
124.1032413046679
 20
-24.65818015727319
 30
0.0
 10
124.1032413046679
 20
-7.947981356383468
 30
0.0
 10
124.1032413046679
 20
-7.947981356383468
 30
0.0
 10
124.1032413046679
 20
-7.947981356383468
 30
0.0
 10
99.05877516509605
 20
-7.947981356383468
 30
0.0
 10
99.05877516509605
 20
-7.947981356383468
 30
0.0
 10
99.05877516509605
 20
-7.947981356383468
 30
0.0
 10
99.05877516509605
 20
-7.948002888230251
 30
0.0
 10
99.05877516509605
 20
-7.948002888230251
 30
0.0
 10
99.05877516509605
 20
-18.99368956488506
 30
0.0
 10
108.0130735637361
 20
-27.9479879635254
 30
0.0
 10
119.0587602403909
 20
-27.9479879635254
 30
0.0
  0
SPLINE
  5
1C0
330
1F
100
AcDbEntity
  8
_U+56FE_U+5C42 1
 62
   179
420
  2234388
370
    35
100
AcDbSpline
210
0.0
220
0.0
230
1.0
 70
    11
 71
     3
 72
    44
 73
    40
 74
     0
 42
0.0000000001
 43
0.0000000001
 12
1.0
 22
0.0
 32
0.0
 13
1.0
 23
0.0
 33
0.0
 40
0.0
 40
0.0
 40
0.0
 40
0.0
 40
1.0
 40
1.0
 40
1.0
 40
2.0
 40
2.0
 40
2.0
 40
3.0
 40
3.0
 40
3.0
 40
4.0
 40
4.0
 40
4.0
 40
5.0
 40
5.0
 40
5.0
 40
6.0
 40
6.0
 40
6.0
 40
7.0
 40
7.0
 40
7.0
 40
8.0
 40
8.0
 40
8.0
 40
9.0
 40
9.0
 40
9.0
 40
10.0
 40
10.0
 40
10.0
 40
11.0
 40
11.0
 40
11.0
 40
12.0
 40
12.0
 40
12.0
 40
13.0
 40
13.0
 40
13.0
 40
13.0
 10
117.1032379155759
 20
-34.06464733835256
 30
0.0
 10
117.1032379155759
 20
-34.06464733835256
 30
0.0
 10
119.1032450358442
 20
-34.06464733835256
 30
0.0
 10
119.1032450358442
 20
-34.06464733835256
 30
0.0
 10
119.1032450358442
 20
-34.06464733835256
 30
0.0
 10
119.1032450358442
 20
-44.1646553043063
 30
0.0
 10
119.1032450358442
 20
-44.1646553043063
 30
0.0
 10
119.1032450358442
 20
-44.1646553043063
 30
0.0
 10
121.6032431702561
 20
-44.1646553043063
 30
0.0
 10
121.6032431702561
 20
-44.1646553043063
 30
0.0
 10
121.6032431702561
 20
-44.1646553043063
 30
0.0
 10
121.6032431702561
 20
-45.96465309980899
 30
0.0
 10
121.6032431702561
 20
-45.96465309980899
 30
0.0
 10
121.6032431702561
 20
-45.96465309980899
 30
0.0
 10
119.1032450358442
 20
-45.96465309980899
 30
0.0
 10
119.1032450358442
 20
-45.96465309980899
 30
0.0
 10
119.1032450358442
 20
-45.96465309980899
 30
0.0
 10
119.1032450358442
 20
-46.06464699626837
 30
0.0
 10
119.1032450358442
 20
-46.06464699626837
 30
0.0
 10
119.1032450358442
 20
-46.06464699626837
 30
0.0
 10
119.1032450358442
 20
-48.06465411653659
 30
0.0
 10
119.1032450358442
 20
-48.06465411653659
 30
0.0
 10
119.1032450358442
 20
-48.06465411653659
 30
0.0
 10
122.1032341843997
 20
-48.06465411653659
 30
0.0
 10
122.1032341843997
 20
-48.06465411653659
 30
0.0
 10
123.2077963925112
 20
-48.06465411653659
 30
0.0
 10
124.1032413046679
 20
-47.1692307362266
 30
0.0
 10
124.1032413046679
 20
-46.06464699626837
 30
0.0
 10
124.1032413046679
 20
-46.06464699626837
 30
0.0
 10
124.1032413046679
 20
-34.06464733835256
 30
0.0
 10
124.1032413046679
 20
-34.06464733835256
 30
0.0
 10
124.1032413046679
 20
-31.85550139028289
 30
0.0
 10
122.3123730122012
 20
-30.06465462966289
 30
0.0
 10
120.1032485959783
 20
-30.06465462966289
 30
0.0
 10
120.1032485959783
 20
-30.06465462966289
 30
0.0
 10
117.1032379155759
 20
-30.06465462966289
 30
0.0
 10
117.1032379155759
 20
-30.06465462966289
 30
0.0
 10
117.1032379155759
 20
-30.06465462966289
 30
0.0
 10
117.1032379155759
 20
-34.06464733835256
 30
0.0
 10
117.1032379155759
 20
-34.06464733835256
 30
0.0
  0
SPLINE
  5
1C1
330
1F
100
AcDbEntity
  8
_U+56FE_U+5C42 1
 62
   179
420
  2234388
370
    35
100
AcDbSpline
210
0.0
220
0.0
230
1.0
 70
    11
 71
     3
 72
    44
 73
    40
 74
     0
 42
0.0000000001
 43
0.0000000001
 12
1.0
 22
0.0
 32
0.0
 13
1.0
 23
0.0
 33
0.0
 40
0.0
 40
0.0
 40
0.0
 40
0.0
 40
1.0
 40
1.0
 40
1.0
 40
2.0
 40
2.0
 40
2.0
 40
3.0
 40
3.0
 40
3.0
 40
4.0
 40
4.0
 40
4.0
 40
5.0
 40
5.0
 40
5.0
 40
6.0
 40
6.0
 40
6.0
 40
7.0
 40
7.0
 40
7.0
 40
8.0
 40
8.0
 40
8.0
 40
9.0
 40
9.0
 40
9.0
 40
10.0
 40
10.0
 40
10.0
 40
11.0
 40
11.0
 40
11.0
 40
12.0
 40
12.0
 40
12.0
 40
13.0
 40
13.0
 40
13.0
 40
13.0
 10
117.5596537551627
 20
-44.06466140784692
 30
0.0
 10
117.5596537551627
 20
-44.06466140784692
 30
0.0
 10
115.5596466348945
 20
-44.06466140784692
 30
0.0
 10
115.5596466348945
 20
-44.06466140784692
 30
0.0
 10
115.5596466348945
 20
-44.06466140784692
 30
0.0
 10
115.5596466348945
 20
-33.96465344189319
 30
0.0
 10
115.5596466348945
 20
-33.96465344189319
 30
0.0
 10
115.5596466348945
 20
-33.96465344189319
 30
0.0
 10
113.0596485004826
 20
-33.96465344189319
 30
0.0
 10
113.0596485004826
 20
-33.96465344189319
 30
0.0
 10
113.0596485004826
 20
-33.96465344189319
 30
0.0
 10
113.0596485004826
 20
-32.1646556463905
 30
0.0
 10
113.0596485004826
 20
-32.1646556463905
 30
0.0
 10
113.0596485004826
 20
-32.1646556463905
 30
0.0
 10
115.5596466348945
 20
-32.1646556463905
 30
0.0
 10
115.5596466348945
 20
-32.1646556463905
 30
0.0
 10
115.5596466348945
 20
-32.1646556463905
 30
0.0
 10
115.5596466348945
 20
-32.06466174993112
 30
0.0
 10
115.5596466348945
 20
-32.06466174993112
 30
0.0
 10
115.5596466348945
 20
-32.06466174993112
 30
0.0
 10
115.5596466348945
 20
-30.06465462966289
 30
0.0
 10
115.5596466348945
 20
-30.06465462966289
 30
0.0
 10
115.5596466348945
 20
-30.06465462966289
 30
0.0
 10
112.5596574863389
 20
-30.06465462966289
 30
0.0
 10
112.5596574863389
 20
-30.06465462966289
 30
0.0
 10
111.4550952782275
 20
-30.06465462966289
 30
0.0
 10
110.5596503660707
 20
-30.96007800997289
 30
0.0
 10
110.5596503660707
 20
-32.06466174993112
 30
0.0
 10
110.5596503660707
 20
-32.06466174993112
 30
0.0
 10
110.5596503660707
 20
-44.06466140784692
 30
0.0
 10
110.5596503660707
 20
-44.06466140784692
 30
0.0
 10
110.5596503660707
 20
-46.2738073559166
 30
0.0
 10
112.3505186585375
 20
-48.06465411653659
 30
0.0
 10
114.5596430747603
 20
-48.06465411653659
 30
0.0
 10
114.5596430747603
 20
-48.06465411653659
 30
0.0
 10
117.5596537551627
 20
-48.06465411653659
 30
0.0
 10
117.5596537551627
 20
-48.06465411653659
 30
0.0
 10
117.5596537551627
 20
-48.06465411653659
 30
0.0
 10
117.5596537551627
 20
-44.06466140784692
 30
0.0
 10
117.5596537551627
 20
-44.06466140784692
 30
0.0
  0
INSERT
  5
1C3
330
1F
100
AcDbEntity
  8
_U+56FE_U+5C42 1
100
AcDbBlockReference
  2
block 12
 10
0.0
 20
0.0
 30
0.0
  0
ENDSEC
  0
SECTION
  2
OBJECTS
  0
DICTIONARY
  5
C
330
0
100
AcDbDictionary
281
     1
  3
ACAD_GROUP
350
D
  3
ACAD_LAYOUT
350
1A
  3
ACAD_MATERIAL
350
3B
  3
ACAD_MLEADERSTYLE
350
1CD
  3
ACAD_MLINESTYLE
350
17
  3
ACAD_PLOTSETTINGS
350
19
  3
ACAD_PLOTSTYLENAME
350
E
  3
ACAD_TABLESTYLE
350
1CC
  3
ACAD_VISUALSTYLE
350
2A
  0
SUN
  5
3F
330
29
100
AcDbSun
 90
        1
290
     0
 63
     7
421
 16777215
 40
1.0
291
     1
 91
  2455826
 92
 54000000
292
     0
 70
     2
 71
   256
280
     1
  0
DICTIONARY
  5
D
102
{ACAD_REACTORS
330
C
102
}
330
C
100
AcDbDictionary
281
     1
  0
DICTIONARY
  5
1A
102
{ACAD_REACTORS
330
C
102
}
330
C
100
AcDbDictionary
281
     1
  3
Layout1
350
1E
  3
Layout2
350
26
  3
Model
350
22
  0
DICTIONARY
  5
3B
102
{ACAD_REACTORS
330
C
102
}
330
C
100
AcDbDictionary
281
     1
  3
ByBlock
350
3D
  3
ByLayer
350
3C
  3
Global
350
3E
  0
DICTIONARY
  5
1CD
102
{ACAD_REACTORS
330
C
102
}
330
C
100
AcDbDictionary
281
     1
  0
DICTIONARY
  5
17
102
{ACAD_REACTORS
330
C
102
}
330
C
100
AcDbDictionary
281
     1
  3
Standard
350
18
  0
DICTIONARY
  5
19
102
{ACAD_REACTORS
330
C
102
}
330
C
100
AcDbDictionary
281
     1
  0
ACDBDICTIONARYWDFLT
  5
E
102
{ACAD_REACTORS
330
C
102
}
330
C
100
AcDbDictionary
281
     1
  3
Normal
350
F
100
AcDbDictionaryWithDefault
340
F
  0
DICTIONARY
  5
1CC
102
{ACAD_REACTORS
330
C
102
}
330
C
100
AcDbDictionary
281
     1
  0
DICTIONARY
  5
2A
102
{ACAD_REACTORS
330
C
102
}
330
C
100
AcDbDictionary
281
     1
  3
2dWireframe
350
2F
  3
3D Hidden
350
31
  3
3dWireframe
350
30
  3
Basic
350
32
  3
Brighten
350
36
  3
ColorChange
350
3A
  3
Conceptual
350
34
  3
Dim
350
35
  3
Facepattern
350
39
  3
Flat
350
2B
  3
FlatWithEdges
350
2C
  3
Gouraud
350
2D
  3
GouraudWithEdges
350
2E
  3
Linepattern
350
38
  3
Realistic
350
33
  3
Thicken
350
37
  0
LAYOUT
  5
1E
102
{ACAD_REACTORS
330
1A
102
}
330
1A
100
AcDbPlotSettings
  1

  2
none_device
  4

  6

 40
0.0
 41
0.0
 42
0.0
 43
0.0
 44
0.0
 45
0.0
 46
0.0
 47
0.0
 48
0.0
 49
0.0
140
0.0
141
0.0
142
1.0
143
1.0
 70
   688
 72
     0
 73
     0
 74
     5
  7

 75
    16
 76
     0
 77
     2
 78
   300
147
1.0
148
0.0
149
0.0
100
AcDbLayout
  1
Layout1
 70
     1
 71
     1
 10
0.0
 20
0.0
 11
12.0
 21
9.0
 12
0.0
 22
0.0
 32
0.0
 14
1.000000000000000E+20
 24
1.000000000000000E+20
 34
1.000000000000000E+20
 15
-1.000000000000000E+20
 25
-1.000000000000000E+20
 35
-1.000000000000000E+20
146
0.0
 13
0.0
 23
0.0
 33
0.0
 16
1.0
 26
0.0
 36
0.0
 17
0.0
 27
1.0
 37
0.0
 76
     0
330
1B
  0
LAYOUT
  5
26
102
{ACAD_REACTORS
330
1A
102
}
330
1A
100
AcDbPlotSettings
  1

  2
none_device
  4

  6

 40
0.0
 41
0.0
 42
0.0
 43
0.0
 44
0.0
 45
0.0
 46
0.0
 47
0.0
 48
0.0
 49
0.0
140
0.0
141
0.0
142
1.0
143
1.0
 70
   688
 72
     0
 73
     0
 74
     5
  7

 75
    16
 76
     0
 77
     2
 78
   300
147
1.0
148
0.0
149
0.0
100
AcDbLayout
  1
Layout2
 70
     1
 71
     2
 10
0.0
 20
0.0
 11
0.0
 21
0.0
 12
0.0
 22
0.0
 32
0.0
 14
0.0
 24
0.0
 34
0.0
 15
0.0
 25
0.0
 35
0.0
146
0.0
 13
0.0
 23
0.0
 33
0.0
 16
1.0
 26
0.0
 36
0.0
 17
0.0
 27
1.0
 37
0.0
 76
     0
330
23
  0
LAYOUT
  5
22
102
{ACAD_REACTORS
330
1A
102
}
330
1A
100
AcDbPlotSettings
  1

  2
none_device
  4

  6

 40
0.0
 41
0.0
 42
0.0
 43
0.0
 44
0.0
 45
0.0
 46
0.0
 47
0.0
 48
0.0
 49
0.0
140
0.0
141
0.0
142
1.0
143
1.0
 70
  1712
 72
     0
 73
     0
 74
     0
  7

 75
     0
 76
     0
 77
     2
 78
   300
147
1.0
148
0.0
149
0.0
100
AcDbLayout
  1
Model
 70
     1
 71
     0
 10
0.0
 20
0.0
 11
12.0
 21
9.0
 12
0.0
 22
0.0
 32
0.0
 14
1.000000000000000E+20
 24
1.000000000000000E+20
 34
1.000000000000000E+20
 15
-1.000000000000000E+20
 25
-1.000000000000000E+20
 35
-1.000000000000000E+20
146
0.0
 13
0.0
 23
0.0
 33
0.0
 16
1.0
 26
0.0
 36
0.0
 17
0.0
 27
1.0
 37
0.0
 76
     0
330
1F
331
29
  0
MATERIAL
  5
3D
102
{ACAD_REACTORS
330
3B
102
}
330
3B
100
AcDbMaterial
  1
ByBlock
 72
     1
 94
      127
  0
MATERIAL
  5
3C
102
{ACAD_REACTORS
330
3B
102
}
330
3B
100
AcDbMaterial
  1
ByLayer
 72
     1
 94
      127
  0
MATERIAL
  5
3E
102
{ACAD_REACTORS
330
3B
102
}
330
3B
100
AcDbMaterial
  1
Global
 72
     1
 94
      127
  0
MLINESTYLE
  5
18
102
{ACAD_REACTORS
330
17
102
}
330
17
100
AcDbMlineStyle
  2
Standard
 70
     0
  3

 62
   256
 51
90.0
 52
90.0
 71
     2
 49
0.5
 62
   256
  6
BYLAYER
 49
-0.5
 62
   256
  6
BYLAYER
  0
ACDBPLACEHOLDER
  5
F
102
{ACAD_REACTORS
330
E
102
}
330
E
  0
VISUALSTYLE
  5
2F
102
{ACAD_REACTORS
330
2A
102
}
330
2A
100
AcDbVisualStyle
  2
2dWireframe
 70
     4
177
     2
291
     0
 71
     0
176
     1
 72
     2
176
     1
 73
     0
176
     1
 90
        0
176
     1
 40
-0.6
176
     1
 41
-30.0
176
     1
 62
     5
 63
     7
421
 16777215
176
     1
 74
     1
176
     1
 91
        4
176
     1
 64
     7
176
     1
 65
   257
176
     1
 75
     1
176
     1
175
     1
176
     1
 42
1.0
176
     1
 92
        0
176
     1
 66
   257
176
     1
 43
1.0
176
     1
 76
     1
176
     1
 77
     6
176
     1
 78
     2
176
     1
 67
     7
176
     1
 79
     5
176
     1
170
     0
176
     1
171
     0
176
     1
290
     0
176
     1
 93
        1
176
     1
 44
0.0
176
     1
173
     0
176
     1
  0
VISUALSTYLE
  5
31
102
{ACAD_REACTORS
330
2A
102
}
330
2A
100
AcDbVisualStyle
  2
3D Hidden
 70
     6
177
     2
291
     0
 71
     1
176
     1
 72
     2
176
     1
 73
     2
176
     1
 90
        0
176
     1
 40
-0.6
176
     1
 41
-30.0
176
     1
 62
     5
 63
     7
421
 16777215
176
     1
 74
     2
176
     1
 91
        2
176
     1
 64
     7
176
     1
 65
   257
176
     1
 75
     2
176
     1
175
     1
176
     1
 42
40.0
176
     1
 92
        0
176
     1
 66
   257
176
     1
 43
1.0
176
     1
 76
     1
176
     1
 77
     6
176
     1
 78
     2
176
     1
 67
     7
176
     1
 79
     3
176
     1
170
     0
176
     1
171
     0
176
     1
290
     0
176
     1
 93
        1
176
     1
 44
0.0
176
     1
173
     0
176
     1
  0
VISUALSTYLE
  5
30
102
{ACAD_REACTORS
330
2A
102
}
330
2A
100
AcDbVisualStyle
  2
3dWireframe
 70
     5
177
     2
291
     0
 71
     0
176
     1
 72
     2
176
     1
 73
     0
176
     1
 90
        0
176
     1
 40
-0.6
176
     1
 41
-30.0
176
     1
 62
     5
 63
     7
421
 16777215
176
     1
 74
     1
176
     1
 91
        4
176
     1
 64
     7
176
     1
 65
   257
176
     1
 75
     1
176
     1
175
     1
176
     1
 42
1.0
176
     1
 92
        0
176
     1
 66
   257
176
     1
 43
1.0
176
     1
 76
     1
176
     1
 77
     6
176
     1
 78
     2
176
     1
 67
     7
176
     1
 79
     5
176
     1
170
     0
176
     1
171
     0
176
     1
290
     0
176
     1
 93
        1
176
     1
 44
0.0
176
     1
173
     0
176
     1
  0
VISUALSTYLE
  5
32
102
{ACAD_REACTORS
330
2A
102
}
330
2A
100
AcDbVisualStyle
  2
Basic
 70
     7
177
     2
291
     1
 71
     1
176
     1
 72
     0
176
     1
 73
     1
176
     1
 90
        0
176
     1
 40
-0.6
176
     1
 41
-30.0
176
     1
 62
     5
 63
     7
421
 16777215
176
     1
 74
     0
176
     1
 91
        4
176
     1
 64
     7
176
     1
 65
   257
176
     1
 75
     1
176
     1
175
     1
176
     1
 42
1.0
176
     1
 92
        8
176
     1
 66
     7
176
     1
 43
1.0
176
     1
 76
     1
176
     1
 77
     6
176
     1
 78
     2
176
     1
 67
     7
176
     1
 79
     5
176
     1
170
     0
176
     1
171
     0
176
     1
290
     0
176
     1
 93
        1
176
     1
 44
0.0
176
     1
173
     0
176
     1
  0
VISUALSTYLE
  5
36
102
{ACAD_REACTORS
330
2A
102
}
330
2A
100
AcDbVisualStyle
  2
Brighten
 70
    12
177
     2
291
     1
 71
     2
176
     1
 72
     2
176
     1
 73
     0
176
     1
 90
        0
176
     1
 40
-0.6
176
     1
 41
-30.0
176
     1
 62
     5
 63
     7
421
 16777215
176
     1
 74
     1
176
     1
 91
        4
176
     1
 64
     7
176
     1
 65
   257
176
     1
 75
     1
176
     1
175
     1
176
     1
 42
1.0
176
     1
 92
        8
176
     1
 66
     7
176
     1
 43
1.0
176
     1
 76
     1
176
     1
 77
     6
176
     1
 78
     2
176
     1
 67
     7
176
     1
 79
     5
176
     1
170
     0
176
     1
171
     0
176
     1
290
     0
176
     1
 93
        1
176
     1
 44
50.0
176
     1
173
     0
176
     1
  0
VISUALSTYLE
  5
3A
102
{ACAD_REACTORS
330
2A
102
}
330
2A
100
AcDbVisualStyle
  2
ColorChange
 70
    16
177
     2
291
     1
 71
     2
176
     1
 72
     2
176
     1
 73
     3
176
     1
 90
        0
176
     1
 40
-0.6
176
     1
 41
-30.0
176
     1
 62
     5
 63
     8
421
  8421504
176
     1
 74
     1
176
     1
 91
        4
176
     1
 64
     7
176
     1
 65
   257
176
     1
 75
     1
176
     1
175
     1
176
     1
 42
1.0
176
     1
 92
        8
176
     1
 66
     8
424
  8421504
176
     1
 43
1.0
176
     1
 76
     1
176
     1
 77
     6
176
     1
 78
     2
176
     1
 67
     7
176
     1
 79
     5
176
     1
170
     0
176
     1
171
     0
176
     1
290
     0
176
     1
 93
        1
176
     1
 44
0.0
176
     1
173
     0
176
     1
  0
VISUALSTYLE
  5
34
102
{ACAD_REACTORS
330
2A
102
}
330
2A
100
AcDbVisualStyle
  2
Conceptual
 70
     9
177
     2
291
     0
 71
     3
176
     1
 72
     2
176
     1
 73
     0
176
     1
 90
        0
176
     1
 40
-0.6
176
     1
 41
-30.0
176
     1
 62
     5
 63
     7
421
 16777215
176
     1
 74
     2
176
     1
 91
        2
176
     1
 64
     7
176
     1
 65
   257
176
     1
 75
     1
176
     1
175
     1
176
     1
 42
40.0
176
     1
 92
        8
176
     1
 66
     7
176
     1
 43
1.0
176
     1
 76
     1
176
     1
 77
     6
176
     1
 78
     2
176
     1
 67
     7
176
     1
 79
     3
176
     1
170
     0
176
     1
171
     0
176
     1
290
     0
176
     1
 93
        1
176
     1
 44
0.0
176
     1
173
     0
176
     1
  0
VISUALSTYLE
  5
35
102
{ACAD_REACTORS
330
2A
102
}
330
2A
100
AcDbVisualStyle
  2
Dim
 70
    11
177
     2
291
     1
 71
     2
176
     1
 72
     2
176
     1
 73
     0
176
     1
 90
        0
176
     1
 40
-0.6
176
     1
 41
-30.0
176
     1
 62
     5
 63
     7
421
 16777215
176
     1
 74
     1
176
     1
 91
        4
176
     1
 64
     7
176
     1
 65
   257
176
     1
 75
     1
176
     1
175
     1
176
     1
 42
1.0
176
     1
 92
        8
176
     1
 66
     7
176
     1
 43
1.0
176
     1
 76
     1
176
     1
 77
     6
176
     1
 78
     2
176
     1
 67
     7
176
     1
 79
     5
176
     1
170
     0
176
     1
171
     0
176
     1
290
     0
176
     1
 93
        1
176
     1
 44
-50.0
176
     1
173
     0
176
     1
  0
VISUALSTYLE
  5
39
102
{ACAD_REACTORS
330
2A
102
}
330
2A
100
AcDbVisualStyle
  2
Facepattern
 70
    15
177
     2
291
     1
 71
     2
176
     1
 72
     2
176
     1
 73
     0
176
     1
 90
        0
176
     1
 40
-0.6
176
     1
 41
-30.0
176
     1
 62
     5
 63
     7
421
 16777215
176
     1
 74
     1
176
     1
 91
        4
176
     1
 64
     7
176
     1
 65
   257
176
     1
 75
     1
176
     1
175
     1
176
     1
 42
1.0
176
     1
 92
        8
176
     1
 66
     7
176
     1
 43
1.0
176
     1
 76
     1
176
     1
 77
     6
176
     1
 78
     2
176
     1
 67
     7
176
     1
 79
     5
176
     1
170
     0
176
     1
171
     0
176
     1
290
     0
176
     1
 93
        1
176
     1
 44
0.0
176
     1
173
     0
176
     1
  0
VISUALSTYLE
  5
2B
102
{ACAD_REACTORS
330
2A
102
}
330
2A
100
AcDbVisualStyle
  2
Flat
 70
     0
177
     2
291
     1
 71
     2
176
     1
 72
     1
176
     1
 73
     1
176
     1
 90
        2
176
     1
 40
-0.6
176
     1
 41
30.0
176
     1
 62
     5
 63
     7
421
 16777215
176
     1
 74
     0
176
     1
 91
        4
176
     1
 64
     7
176
     1
 65
   257
176
     1
 75
     1
176
     1
175
     1
176
     1
 42
1.0
176
     1
 92
        8
176
     1
 66
     7
176
     1
 43
1.0
176
     1
 76
     1
176
     1
 77
     6
176
     1
 78
     2
176
     1
 67
     7
176
     1
 79
     5
176
     1
170
     0
176
     1
171
     0
176
     1
290
     0
176
     1
 93
       13
176
     1
 44
0.0
176
     1
173
     0
176
     1
  0
VISUALSTYLE
  5
2C
102
{ACAD_REACTORS
330
2A
102
}
330
2A
100
AcDbVisualStyle
  2
FlatWithEdges
 70
     1
177
     2
291
     1
 71
     2
176
     1
 72
     1
176
     1
 73
     1
176
     1
 90
        2
176
     1
 40
-0.6
176
     1
 41
30.0
176
     1
 62
     5
 63
     7
421
 16777215
176
     1
 74
     1
176
     1
 91
        4
176
     1
 64
     7
176
     1
 65
   257
176
     1
 75
     1
176
     1
175
     1
176
     1
 42
1.0
176
     1
 92
        0
176
     1
 66
   257
176
     1
 43
1.0
176
     1
 76
     1
176
     1
 77
     6
176
     1
 78
     2
176
     1
 67
     7
176
     1
 79
     5
176
     1
170
     0
176
     1
171
     0
176
     1
290
     0
176
     1
 93
       13
176
     1
 44
0.0
176
     1
173
     0
176
     1
  0
VISUALSTYLE
  5
2D
102
{ACAD_REACTORS
330
2A
102
}
330
2A
100
AcDbVisualStyle
  2
Gouraud
 70
     2
177
     2
291
     1
 71
     2
176
     1
 72
     2
176
     1
 73
     1
176
     1
 90
        2
176
     1
 40
-0.6
176
     1
 41
30.0
176
     1
 62
     5
 63
     7
421
 16777215
176
     1
 74
     0
176
     1
 91
        4
176
     1
 64
     7
176
     1
 65
   257
176
     1
 75
     1
176
     1
175
     1
176
     1
 42
1.0
176
     1
 92
        0
176
     1
 66
     7
176
     1
 43
1.0
176
     1
 76
     1
176
     1
 77
     6
176
     1
 78
     2
176
     1
 67
     7
176
     1
 79
     5
176
     1
170
     0
176
     1
171
     0
176
     1
290
     0
176
     1
 93
       13
176
     1
 44
0.0
176
     1
173
     0
176
     1
  0
VISUALSTYLE
  5
2E
102
{ACAD_REACTORS
330
2A
102
}
330
2A
100
AcDbVisualStyle
  2
GouraudWithEdges
 70
     3
177
     2
291
     1
 71
     2
176
     1
 72
     2
176
     1
 73
     1
176
     1
 90
        2
176
     1
 40
-0.6
176
     1
 41
30.0
176
     1
 62
     5
 63
     7
421
 16777215
176
     1
 74
     1
176
     1
 91
        4
176
     1
 64
     7
176
     1
 65
   257
176
     1
 75
     1
176
     1
175
     1
176
     1
 42
1.0
176
     1
 92
        0
176
     1
 66
   257
176
     1
 43
1.0
176
     1
 76
     1
176
     1
 77
     6
176
     1
 78
     2
176
     1
 67
     7
176
     1
 79
     5
176
     1
170
     0
176
     1
171
     0
176
     1
290
     0
176
     1
 93
       13
176
     1
 44
0.0
176
     1
173
     0
176
     1
  0
VISUALSTYLE
  5
38
102
{ACAD_REACTORS
330
2A
102
}
330
2A
100
AcDbVisualStyle
  2
Linepattern
 70
    14
177
     2
291
     1
 71
     2
176
     1
 72
     2
176
     1
 73
     0
176
     1
 90
        0
176
     1
 40
-0.6
176
     1
 41
-30.0
176
     1
 62
     5
 63
     7
421
 16777215
176
     1
 74
     1
176
     1
 91
        4
176
     1
 64
     7
176
     1
 65
   257
176
     1
 75
     7
176
     1
175
     7
176
     1
 42
1.0
176
     1
 92
        8
176
     1
 66
     7
176
     1
 43
1.0
176
     1
 76
     1
176
     1
 77
     6
176
     1
 78
     2
176
     1
 67
     7
176
     1
 79
     5
176
     1
170
     0
176
     1
171
     0
176
     1
290
     0
176
     1
 93
        1
176
     1
 44
0.0
176
     1
173
     0
176
     1
  0
VISUALSTYLE
  5
33
102
{ACAD_REACTORS
330
2A
102
}
330
2A
100
AcDbVisualStyle
  2
Realistic
 70
     8
177
     2
291
     0
 71
     2
176
     1
 72
     2
176
     1
 73
     0
176
     1
 90
        0
176
     1
 40
-0.6
176
     1
 41
-30.0
176
     1
 62
     5
 63
     7
421
 16777215
176
     1
 74
     1
176
     1
 91
        0
176
     1
 64
     7
176
     1
 65
   257
176
     1
 75
     1
176
     1
175
     1
176
     1
 42
1.0
176
     1
 92
        8
176
     1
 66
     8
424
  7895160
176
     1
 43
1.0
176
     1
 76
     1
176
     1
 77
     6
176
     1
 78
     2
176
     1
 67
     7
176
     1
 79
     5
176
     1
170
     0
176
     1
171
     0
176
     1
290
     0
176
     1
 93
       13
176
     1
 44
0.0
176
     1
173
     0
176
     1
  0
VISUALSTYLE
  5
37
102
{ACAD_REACTORS
330
2A
102
}
330
2A
100
AcDbVisualStyle
  2
Thicken
 70
    13
177
     2
291
     1
 71
     2
176
     1
 72
     2
176
     1
 73
     0
176
     1
 90
        0
176
     1
 40
-0.6
176
     1
 41
-30.0
176
     1
 62
     5
 63
     7
421
 16777215
176
     1
 74
     1
176
     1
 91
        4
176
     1
 64
     7
176
     1
 65
   257
176
     1
 75
     1
176
     1
175
     1
176
     1
 42
1.0
176
     1
 92
       12
176
     1
 66
     7
176
     1
 43
1.0
176
     1
 76
     1
176
     1
 77
     6
176
     1
 78
     2
176
     1
 67
     7
176
     1
 79
     5
176
     1
170
     0
176
     1
171
     0
176
     1
290
     0
176
     1
 93
        1
176
     1
 44
0.0
176
     1
173
     0
176
     1
  0
ENDSEC
  0
EOF
